<mxfile host="Electron" modified="2024-01-26T08:50:46.919Z" agent="Mozilla/5.0 (Windows NT 10.0; Win64; x64) AppleWebKit/537.36 (KHTML, like Gecko) draw.io/21.2.8 Chrome/112.0.5615.165 Electron/24.2.0 Safari/537.36" etag="ZFKlRMsBvr-akMmsghjG" version="21.2.8" type="device">
  <diagram name="Page-1" id="2XWkQP5S-hDbL94sL5Vg">
    <mxGraphModel dx="1418" dy="820" grid="1" gridSize="10" guides="1" tooltips="1" connect="1" arrows="1" fold="1" page="1" pageScale="1" pageWidth="3300" pageHeight="4681" background="#999999" math="0" shadow="0">
      <root>
        <mxCell id="0" />
        <mxCell id="1" parent="0" />
        <mxCell id="H1J6HS9yEPuZjkz32eCW-1" value="" style="shape=image;verticalLabelPosition=bottom;labelBackgroundColor=default;verticalAlign=top;aspect=fixed;imageAspect=0;image=data:image/png,iVBORw0KGgoAAAANSUhEUgAAAucAAAL3CAYAAAAp0etTAAAAAXNSR0IArs4c6QAAAARnQU1BAACxjwv8YQUAAAAJcEhZcwAADsMAAA7DAcdvqGQAAJi2SURBVHhe7f1/bFR3nuf7v+nOfneM+25jyp42JjZFmjY2aoKxN93stWIULkkPS2g7ubJl5o97w16QkpIWosxGIiMiBgVNkHInTfiqHSRyF3T/uFhGt9tuhkU0aVoQuUOm14Y0Mxh76cHYxKYHFyZ3F9yr29O5n885n1N16qfL5XL5U+b5kKp96lSdOqfOMZ3X+fj9+XwWPb2u7isBAAAAMO++Zn4CAAAAmGeEcwAAAMAShHMAAADAEoRzAAAAwBKEcwAAAMAShHMAAADAEoRzAAAAwBKEcwAAAMAShHMAAADAEoRzAAAAwBKEcwAAAMAShHMAAADAEoRzAAAAwBKEcwAAAMAShHMAAADAEoRzAAAAwBKEcwAAAMAShHMAAADAEoRzAAAAwBKEcwAAAMAShHMAAADAEoRzAAAAwBKEcwAAAMAShHMAAADAEoRzAAAAwBKEcwAAAMAShHMAAADAEoRzAAAAwBKEcwAAAMAShHMAAADAEoRzAAAAwBKEcwAAAMAShHMAAADAEoueXlf3lVkGHkOl0tT6jLTUr5SKZWaV3JKOV87KJfMMAAAgXwq75XzN12XDf3jCeVSvMetiLJJq8/qGlkVm3WPoT78m68x5WPfsY3wekmja0yahrf5gDgAAMH8WTFnL0uokoXPN12SpWXycLV69SIrMctF3Fslis4xSWV7uLvUd65L2VzrMg1ZzAAAwPxZOzfmqr6moFas0WWB/7CySgArkcv+P8sVnX6m7GPX8T81LcI33y6neCfMEAABg/iyIcH7/pi6bXyRLY0pb1PNV6od67b674vH0p+o8LBWZ+i9fyejgVzKlz8tqbloAAABs9PVvlZf/lVkuPGVfkyd1q7AKnv/1SRU6F30ld26Y19Z8Xb6jXruvXhP1WtF932s+i9d8TVZuU+/9n9Rn/Y/64bYs/1f13v/XvCdC126/9nVZWaNuCK58lfi6Cr6V/+4JWfM/LZJF6qbg/3loVkcsktJn1b42q8+I35+6g/h/E97vo0J25fNquxfVw9nuaxKoWST//MVX8ijddivU91Pn4b/+5o8SHhb5ptruXy1OdfyuxeoYG9q+Fv0Oyfb9p+qcJz1HWR5niu3+f/9d5P+5Z96Tc49k6XefkWe+MS4f/+KOPDBrAQAA5ssCKWv5SqZ087ivtGVxQP+vWh+WSL11LDdIP/1vv+a0LEepIL/q6/L0f/i6VOa0/GORVP+7r8uq76vPT7a//+XrUp2is6YOyxvU68tXRWvHtaKli2TV/5K+k6db2vOV3L+un6mfN9WPGZS2pNy3ejxyFyOyO051HVpSb7f836rzkrSzbw4tK5EqswgAADCfFkzNeVi3kKug55a2eHXWX0k4RSnx4me/JsudkKwC63/6Z7n8v//Bffyf/yxfOHUwKhiqwBhfx54tvT/nJkAd083/0+zLefyz/OY/6ZuL2GAasUYFdxXoneP8TL03st0f3O3UK0Xf/1qKGwmvtOeP4p2GiSFznqYtbVHH8z+afTvH7DtH+ph/pT/HJ9vjXKOugwrlU0n2cVPXyCtLVUDP1XUAAACw2YII50UBkUef/NGpLXdGbTF11vcv/zGhddfxp1+T75gg+YUKhEPXfUHzn76S0f/oC+g5Hnpw6r+ooPxP5onjK3l0/Z/l8//4B/n8k7jAq/ZfucHdv76BGFKv+7+Ps50KvinDthmt5r4TyI3r7nnKZNSWpTo0q6B9WZ2PCXVeotRxxHyHWRyneu036mbl8yT7mPhEBXTd0q8U5fSvGFqpBFu3SMt6tTg+KSPuSgAAgHm1cEZr0S22pmSj1Bk6UD3XpRylSVqkvXU3/yijMSHTowL6ZTco5mrowUdOZ0y39ViXryzOJGyamww90sodpywliTRhO7akxRM9T9OWttxUoTrhhiGJWR5nJOirzylVNxTVLV+Xdf/OHcN+lW75V6G+KFdN5ys2yPsnQtJ5ok0O6fHNx29Jz9HLMmxeBgAAmE8Lo0Oo6ez56GuL5MmnvyZLn1TrVPAe0h1A496jLa75mnxLvUePYPK7VE2mi1R4XbdI/oVK8f/1V6YluHiRlOt1U2q7FB1Cv7n+a/Kv9Dafx3UIfai2UaF4caU6vu+o/a9zOz0+WaPC6jdEpn6fpEOo6cwpRYvkW6aTZLKHc6ORcEzqXLyoX1PBOe79bo29+h6/T/79/4Xa77Tnx29Wx6nOidcpd4M+NyqIqxuHf6E+y0//xSGci46hS56UHzy3TP4H83Tsvz2QX//nm3L7S7MCAABgHi2glnPFtM5qMaUctvgndcPwH//g1LXreur76oZhSgXRpd/XHUKfkHUtuWmld5iSlnSsmJBI16p7nXLV+dD16rr2/Dem/twra8mZ25flDWeioS7pODMpFctWSujVDRI0LwMAAMynBdVyri36+iIpWvyV/NPPTWt3kvd4LcO65TjZ8IoOrzVYb+e19M6m5dxPrX808pWE1Wf87ld/lDs3v3Ja1P/VcvX4uq+12mu9v6nrvtX79HtTPeKOp7Tx6yrwujX118/Hv/8rWVSj9qUC8R+SDPnonZ8/fJFhy3nWx7lIqv9X3aKujvM//VGu//yPElb700Muen9F0H/l0ME9Zy3nEY/k9vW/l39a8Yw8853fy1D3TbltXgEAAJgvC6vlXNGdCD9XATHdfI9e/bceejHVKCdeB0dd2hHp3PhPZrulyVucoyPAJFq8Jk0rtfrcIa/G3RkC0lDr7+s/BaQ8zlQWuaO0qBuLcIqa+sjoNrmYkCjr4zT0cfo75UYk6S8AAACwgC24cJ6Rf/qjfOGUS7jDJVar4ByhJ8P5d1+PDLP4RVyHSGc8dbXdKn8Jit6mxRtKMAk9Osy/Va//h6+7pSvq/X76efW/NTcDYeeH4XVMNceZ0JHUndRonfrcmP6SpqQl5sYiTqSDak5KW7I8Ts9SdX70Nuapfv/iNW6n0OVOh1AAAIDHw6Kn19Ula7IsDCrAbdChVpdTdKf4Ginf4w/hybglIQmjuXifl4QedvCLwNdl1arEbXWnxyd1h8eU+1Pu/1F+8x8Th3/Uk/ukDP7afbW/v43ur7TFHeXk/n/6gwylGj1Fff9qFZaXJvme3v7098lotBZjpseppd1Gvf/mfxFn4qb03yVbpbL93TZpln7Z+xYjtgAAgPn3eLacO/R45nqCnD+6JRkRX8mUCvK/+d+TBHNNj8vtTBpknms6ROqxuvX43uHkYfbRdbczqLu/2PfoCXi++E/qc5MEc+3RJ+rGQgXoL26ashqP2s6Z8Oc/+o/VlLSo7xE7hGI89br560FOSluUmR2nS2+T7Hzq8+GMrx7zlwQAAICFrbBbzoFZoeUcAADY5TFuOQeMZfXS2pirWY4AAACyR8s5HmvB1u1yaGuJeea5JR2vnJVL5hkAAEC+0HKOx9rwqZOy98wtGRs3KwAAAOYRLecAAACAJWg5BwAAACxBOAcAAAAsUdDhvKoqaJYAAACAwkfLOQAAAGAJwjkAAABgCcI5AAAAYAnCOQAAAGAJwjkAAABgCcI5AAAAYImCniFUD6U4MjJsnmH+lMvr9btkR1FYjl/tkMMPzWokVVu2SV6rrJGNRQGzRmR4alB+OXpJDt+7a9bE886xeu9otzSPXDPrfYo3SU9doyQMMDrVK+39F2TAPE2Q7XYAACDnaDkH8qmsTTqrG2OCuRYsWi07AmXmWRLFa+Q5Fcy1YGWtbHMXgaSCrdul88QWaTLPAQCFg3AO5M1aOVK92lnSrd/tve/IOu9x9ZjsG73nvJbUw+vyyyl3cXh0QE67i7EeXpBm/2f2dstF81Ja2W4HS5XKv6kvERmflBGzBgBQOAjnQL4Ul8kK/XOqV/aOXIstF3l4V06rR2p35XC/G56TlrQAEUvlyWXqx937QtEfABQewjmA3FixQd58NySdJ0LyfmupWYm8a/y2NKgfff95yH0OACgodAgtFMVr5fXKZ+W5QCDScS91J0LTeVC8Dn3lsq3mZdnp3zbcK3tvpOvsVy61ZU1yqLJUgpH66LDa7hO1XVyrb0KH0Jnvz+0kqWuxzYqU+4qqrVJBsFKinVCTnaNwd9Lj3VbVJDtLV6vvZlZ5+xtV781hh9baqjZ1DtV+zPOU1HGuU8fpinb+TGZ49Jg0j6RrZfeslSONLbJxxh07s9uuaU9IQuvNE5mUnv0n5eRt8zRnSmX7u23SfPdjaf9gSIKNG6T1xXpp0C3Fytj4Lek+elYupdxvqTrO56VlfYlUmDVjV/qlu/uyXHpyi3TuWpL0uHUN96GtEn1tRbW8+WqD2m+J+wa1344U+w02bpHdL66UCnOM+tz0nemTU6eGkrRsx34/53hbn5GWrWp79w3qeD+WI+q16LbqWN71HUta6jhfUcdpngEA7EPLufVUUKsJyed1LbLDFzo1pxNh9S45kqofYVGprFKB9YgKegfjtw00Smf9Jqk1z2OYbTqrdXj1d1xUnxFokc7GkLxebFbFWzzT/ekg+rbpJGlWOTLYl48O6knPkXrEhktzfDowJ9tfXUiOVJWbdbmgbm7MEnJgxSp5RoXcMVkq2/eowLwrGsy1imUrJXRgu2x36ofirNgg759oUzcQ0WCuVayvd7Z581+vVM8eyBdJAnZVhQ6+7mtOZ8sDm2PDsD6GhO10aA6pY/QHc61EGrZulkPvbkj83fC+39j96PH6grlWsX6z7Pb/ZWLFUlmWUTBXqEMHAOvRcm67sjb5XIVk3Ur+0eAlX12ybv19WYVMHZ4HZV9vl6+TYHzLa1iOD/0k0sJe64wY4nZMvDj0juyO6YdoWk31otrn8ZiWedPirILt7Zjtst+f2/qtv0NYvfYT9ZrZl24FX63CtvOZ8d/P5W17MTwoGwPq89Xx7os7R7XFd2NawiP7c96rPjPymveXAvU5E5m2TM+QN2RhlkMUesdua8u5U9byqhuWx850yRunJswLOdSoW7d1iNYmpe/YeTnVO+G2Ijut2To0q+UrXsuzR712Qr2mF8f7pePo5Ugrt9OyrQO0fqJe2/vW5bgWbdOaLeq1vy1xwrbTet09JMPOZ5RKU6PIJXUcUd7+TCv533nvVdRxblfH2ayOs+9Yh7zXa9Zr5vuNqRAtKnBXOC3yv1bHqj9bt/rrmwu1mPD9PGa/Sb8HAKAQ0HJuu3td0n71HWnu10HSH8juyumRDtkX1sul8u1Urcs6hPZ2xJS+DKjPdLdTOaEotpW4tupZE8x1MOuKK5nR++yS5qvH4gK9z0z2p8LqIRPMdWlKJJhrD6/J4f5jctwZoWS17EzTmq2DuQ6s65Kco1QlKsMTOsSbJw71XnWczf26w6X/M5Cx25flvbc6pP2VjrkJ5kqwYom7oMPnKydVsDXBXLs9JO8d7ZcxvVy+NKZVummPCeY61KrQ6i8/Ge49K28cu+U+SdqJ0nSwlJUqxC9RgVrdeOiykshnTMQFc29/KljvV8eoy1d8+9PHedIc57KK2Np87/tV6JZwdYPT/pYulfE+W+2n23y/VHQruv5JZ1AAKFiE8wIQCZjF5bKtbJMcqQlJT31IPm98Ww46VScBeWqx8444KvTq1mHzzO/mI5OWY5TLD0pNWB5M02KaclSRGe5vsSn5CH+SYuKiu3J4dNBZCpauSV6Co4X1pDyZBeqB8A0ntAQrX5YjVWulNoOSGdjDLS+ZlJ6jKVqFb9+XcbMYsWKDtOjWZh3ok7Y2RyXtROkFXhWYx4+5NwTpVcv3ndp7XWITcjrIJjwO1MeUqnjc76db1NP/5cEpe0nmSbdkh86gAFC4COcFQHeWPFL/tnxet0sO6tpsXVcdN4lNbpTJU04ZyYT8NkWLcy7VFrmthsOP0ozv/ci0jOr6eWdForTbx9Njel/tlYtTAdlYqWvM1XlVNzmfq5sdwrrtSmW58weU5HXhqQS/55asjPXfTNma7LZYT8qdO+7zGCbw6lKdmBKUVMxoKTPnfb9b8lmKGwDvu4yPJX+9yambT/E9AAAFgXBuu8iMkmp5alAujnbLvqvHpF099JjXXrkIZkAF9N16zHBn4h91TqfCMqxudryw3lOjQrp5K2xiykuu/Db1aCNJyjq81vZf/12qlmgzaU+K0O8F3tTbx/JKU3Q9uS7xSfeIbR033y9Np03vuyQP39ndvAAA7EI4t9paM6Ok7mDp1lTvHrnm1FUPpCwtyYU0NexzILg4zbT1XunL1ITcdFbkkDqHuoZ+d3+HO0Pm1W4V1NXxBFrkUE5HbEFOmBbplCUdSlOLWy4ys7KOdKE4+8AbX08+La/FPWW9+HTHksHNCwDAeoTzQjB1Q87FdMz0lMu3zVJuXJPzTkt8QHasTjHMolZcnpOWZa/+WwLPphgusVxe16OnKMMT12c8ukkytWVpWsUfXpPdXo17uhuGYlNm1Pi29BRCiE9TEpTWTLeb40mIvBbpVCUdeqQTd5x1XRbirPEpkSefNIsx9AgoprNous6gMxiCcHjsgfOzon5VymE0g42JQ2xGWtxT3lhMcyzeXw0AAAWNcF4IihrlkK6HNk/dYf/apEcPX5jj0vPTo71uQFH77Kxvk9fL/OHT7Ldul3TWrDXrZuHhBfnIuxnQ44v796WHUowMzzgoH+ViBBU9Oky1O3a6U7qibjL8avX47mbIx3R17Nt8kyXpjqWZjMM+P+7JP0ZGu/H9/qjvuS3tMWe3nW619sYcr9j6fPKxxmfB6yzZsEuH/2pfuNUBe3tkiMW+Y7GT7IyMTTo/G3ZtkSbfMekJjN581wxNqCRtkc9m9JPe30qf/rms3hnLPGafehhFZ3z2NmltNCuN9CUriveXgzS18471DbJdhX+Pu091HOY5AMBuhHOrXZMPR92i8qCuh9YdF52HmSBIj/9tWnpzxnSYdAO6O8mRu0//fsNyfNSbzXJ2Tt/whksMyEb/vvSEQk4AVvu6mnwEmBlT323vkNsZ1J1wyP/d3lbPvfHde2XvghhO8a6cm0jy+6O+58HKdDdX2W43l0xJx/ikjI3r8L9ZDkVGP3EnFtKSddocPtXnhuW40VOcCYz0cIdndHhPUVPudQZNU0qTaEje84ZmVAE9Zp8HNkuzOlY9TvqpmOOcvnxm2r8c3L4pv3aGqimRZhX+Y/dZL9+PuxkAANiJcG65gZEOaR8alGEnwBpTg5Ea9NP+9bmiA3qv21kyZr8qKOvp8Nv1OOY5G83lrhzuf0d9Rx2azSrHXOxLj7nudgZ19+cGUI+e6Emf1+km3tF/XfCOdXj0Jzk9vlxzfn/0dTTPHfp7htOPcJPNdnoM7j4zjuHYmfM5nrrflHTc7ZM33uqSjisqpLsvOPQU/B37U42vrsLy/o+lR20ToUK+Hq5w71tnTYlI8lA8bSBOpfestKt99qn9+EWOM2b6fW368plpW9ZlQk6qcxPzPZUxPZGR2mdGI80AAOYdM4QCsJ+eyv5AvTMxz1xNcAQAgA1oOQdgvenG9wYAYKEgnAOw3vQlHQAALAyEcwCWY3IdAMDjg3AOwHIzH2scAIBCRYdQAAAAwBK0nAMAAACWIJwDAAAAliCcAwAAAJYgnAMAAACWIJwDAAAAliCcAwAAAJYgnAMAAACWIJwDAAAAliCcAwAAAJYgnAMAAACWIJwDAAAAliCcAwAAAJYgnAMAAACWIJwDAAAAliCcAwAAAJYgnAMAAACWIJwDAAAAliCcAwAAAJYgnAMAAACWIJwDAAAAliCcAwAAAJYgnAMAAACWIJwDAAAAliCcAwAAAJYgnAMAAACWIJwDAAAAliCcAwAAAJYgnAMAAACWIJwDAAAAliCcAwAAAJYgnAMAAACWIJwDAAAAliCcAwAAAJYgnAMAAACWIJwDAAAAliCcAwAAAJYgnAMAAACWIJwDAAAAliCcAwAAAJZY9PS6uq/McsGpqgrKyMiwebYQlcvr9btkR1FYjl/tkMMPzWoUiCyvX/Em6alrlKB5GjHVK+39F2TAPM0ffg8BAMgXWs5RmMra5PPGt6d99FSVmw2wsJTK9ndD0vnuhsSbGAAAChjhHLDNwwvS3PuOrIs8uuWieQkAACxshHMUNl3qERNkYx/NI3fNGwEAAOxHOAeQGys2yJu61ORESN5vLTUr58pSeXKZWQQAYAGhQ6jV4jvilcu2mpdlZyAQqbMdDvfK3hupOwnWlm2S1yobZWORWSFhtc0naptrCdvUVqlgVRmQi0PvyO57ZmUC75gGZV9vl5w2ayOK18rrlc/Kc/5jnBqUjwbVe1N0JHT3K9HOhsk+I9wde8y65rx69Qw7SZpjF2+bmZ/PVN/vl6OX5PC9+Fb62Ot3TtbKa6ufVdci4L48FZaLoz9R53q61v21cqSxRTbO5LtmcR308daWNcmhytUSNL8v+nx8NHpBpPJtORhI3yG0aU9IQuvNE5mUnv0n5eRt8zQXGrfI+y+ulIpMQvmVj6X9gyHzxBVs3S6Htkr0uFZUy/aWBnlmfYlUuG+RMbXdEbWd8/8q6mbj/QP1UjHeL3vfuuyui6Hr3tukeVma75psH+O3pPvoWbmUy3MDAFgwaDkvFItVQFNB76AvbGnBQKN01m+SWvM8SgfDt6Wz2h/MNbV9oEU6G0PyerFZZQyEbzgBZGNlss8zVHjboT5vWIXR+GCuQ/bndS2yI/4Yi1bLwbrMOmem/Az1yCyAZ6CoVFap8Drj81mT+vvtqN4lR8rMiiSeqlQ3IGrbSDDX1PJGtd3nNWvNitzI7jq4NxKd6obHC+aaPh8H60Kyc7FZMc8yCuYZ0EG988BmafaFZk0v5+p2P+U+lq2U0IF8/HUBAFCIaDm3mtfyap5KWI4P/STSQltb1uaEKS2+tdtrBdfbXFTbRFpndYvqahXcnM+Mb/2ObelN1kK6rSZFC6rXkq33N/qJfDgSbeXWx3lIhz59/Ek+1zvWi+FB2RjQreHquAZV+H/otSiXS23xXRlIur/UEv8CkP359Pbntj7HHtu2qpfloHOuU51P95nXCu22XPu3S3asfjNoOc/yOrjXVS/F/r7Uqt+X19Tvi3uDl/r3wqHLWl6tlwYVoMfOdMkbpybMC3OhWt48sVkaUrZqJ3Jbzkuk78otaVi/UmT8lnQc/bVcuu0dZ6kEV0zIsNeiPZuW88Yt0rlL7UMmpe9Mn5w6ZVrjlaB6bbd6rWIu/roAACh4tJwXCh1Ye1Uw8pVADNzrkn1hd3lFka81tHiTHDLBXIepmLKJh9fkcP8xOT6ln6yWnTGtqHfl8Oig+hmQHZVJWnPV5+7UHzt1Q87FBDQVQiu9UKv25wuEmj7O5iH3c58LpG4918F8ePSYrOvXpRe+Y1bHFRPMc2Em51NTr7VffUeakxzb6ZEOs12pfDvurxEe/b2ab3jBXHO3ax91d7gxkIvW8yyvg3ddk/y+DKjfl92R35dp3L4s772lvtMrHXMczGdHB3N989D+li4t8R+nL5jPigrtL+pgLtJ37KS85wvm2nDvWXnj2C21VCLPfI/WcwBALMJ5QVChSdcKm2d+Nx+ZNOm3uNQtZwh/kqKV0wvhIsHSNbElHPcG3GH7ArWyzVkRVRuocT734mhc623xGnlOt6xO9cqHqVp/zecm7M8v3D3z0VXSjNaSuiV6hufTiNwgFJfLtrJNcqQmJD31IWc8dbfVOSBPJS3/CMsvw8m/l1dKJIvLUp+XTGV7Hab9fVlgrnw8tzcPK1bJM7r8ZrxfTvW6qxL0/lb61I+K+lXuuQcAwCCcL0C1RW5r3PCjlOlU5NGEGwp1/bWzwnNNPnRac1fL8zE11OXyg1KdQAflfPzHeuGuqFE64yYBij5aZKPz5tTSHq8FdOfaI/Xqu9TtkoO6ll/XdPtryGcj4TpkIcvrkNHvywIyNnbfLM2RJ02N+bJ6OXQi5Ixek/jYLA3OmwEAiEU4R4KkHUPTdAR9LDj16KZz7dSgXBztln1Xj0m7euhWeq8cBgAAYDYI5wtYcHGa4UO8VtapCbnprPB5eEE+0mGzqEZ+YGqot+mOmqnKM7xW+HB3QmlJwiPjYQ9tslaOmE6Wx4fcmnhdz61rzwdi6s+zkO46zNQsr0Pa3xdbLSuRKrNojTuTMqZ/6uEcX3Fr8FM+MuzMCgB4fBDOF6BIHXPg2YThEl3RjoPDE9eThuXTYX/HwbXyfNKOoMbD6/JL3WEw5f4WCP39/Z1rI8rl22YpuVS16NNfhxjTlb5keR2ivy+J/QwcxWXylDNayzTyOgmRZ4ksX2EWc+32fRnXP1PcAARbn5fmZEM73r4pv9Ybrm+Q7XN1bACABYtwvhB5Ld8qFO6oC8mRMv/IHGt9w/sNykepOmDeu+SM0KE7Dm4rq3XqlBM6gkb4RnnR+6taK7Ux4VAPG9gmPY1tycNfoShqlEP6u5mn+nvp4Ql79PmcpvR8Y7UeX9y3babXwXFP/jEyuk7sZ2yLOc9ZXgcv1KvPP1ivXvNt43w/PT67eZ5OU4s7jKJWsfX5OQ6mQ/LZFf2zRJpf3SBN/n2tKJWmxlzcHNyXO046XymhPdXRjpvq87fvcYdlTG5CTv6tOxpL84Ht8mar2jbmXKjja90i75/YIk1mDQAAHsY5t5o3TrY7xF2ykTS8McKdofpiAp63rXmaIPVneqJjpWvxY3gnin1/ElODzigp8ftM/R3SiIznPQ1d4nHjmnmS/flM+930sIwTIgcrV8eNVx7d3/CU7jxqVseY/jpoKfcf8/1cWV2H4k0qhDdGA6ifrrF/tFo2zvcMofG8ccjN01i3pOOVs3LJPNO8cc5nNAZ7ZLzyRPpzuiva1HdO/l29/aU0fkt6jp5lnHMAQAxazhesu3K4/x1pH+qVi06rqEdP398t7XqM72kC4cDIJ+6wikomHUEHRjpk3dVuOR5W+zDrHM409Wqf/YnBvFDo79Y+NKhCtlmh6ZBratBPx5zjOFM3ZK9zLWK315MS7csgmGvO/kfV9ua5Q+8/nDjCSlbX4eEFaTbbREXf/2GaISY9l7r7pc9padbB9fzch87bl+WN/R+rfU6aFS49PX7PsV/HBPOs9Z6Vvcduqc80zzU9edF+dyz3kbHYffsNnzop7er4eq6YGnSPOt6+Mx/L3rcI5gCARLScAwAAAJag5RwAAACwBOEcAAAAsAThHAAAALAE4RwAAACwBOEcAAAAsAThHAAAALAE4RwAAACwBOEcAAAAsAThHAAAALAE4RwAAACwBOEcAAAAsAThHAAAALAE4RwAAACwBOEcAAAAsAThHAAAALAE4RwAAACwBOEcAAAAsAThHAAAALAE4RwAAACwBOEcAAAAsAThHAAAALAE4RwAAACwBOEcAAAAsAThHAAAALAE4RwAAACwBOEcAAAAsAThHAAAALAE4RwAAACwBOEcAAAAsAThHAAAALAE4RwAAACwBOEcAAAAsAThHAAAALAE4RwAAACwBOEcAAAAsAThHAAAALAE4RwAAACwxKKn19V9ZZYLTlVVUEZGhs0zALZauvQb8tKLDbK8okTW1FSYtbDV9Rtjcmfsvvz0Z30y+eChWQsAyAfCOYA5pYP57lefl97LQ3L+wj+YtbDdC5u+K40bviM/+vE5efDlI7MWADDXKGsBMKd0iznBvPD8/MLfy68+uykv/bDBrAEA5APhHMCc0qUsBPPCdO4X16RyecA8AwDkA+EcwJyixrywcf0AIL8I5wAAAIAlCOcAAACAJRitBbNXvEl66holaJ5GTPVKe/8FGTBPM1Mur9fvkh1FIsOj3dI8cs2sz43aqpB0VgbUZx9Tn33XrJ0v3ncNy/GrHXLYqhHrSqWp9RlpqV8pFcvMKrklHa+clUvmWaY6T4Sk/ZUO8wzxmvaEJLTePJFJGRt/IN1H1Xm+bVbNM64fAOQXLedIqbZskxypD8nnjW9HHj01m2RbsXnDXCheI8+pYK4FK2tlm7uIPGva0yahrf5gjvwoUed8pYQObJEmswYA8HghnCOJcnm9JiSd1Y2ysSh2pIZgoFEO1oXkSJlZoT28IM2978i6yKNbLpqXZuzhdfnllLs4PDogp91F5FWpLC93l/qOdTmtpu5j5q3mmN6lD7zzqx77P5aecb12iSxf4bwMAHjMEM4Rx5RaBHQoD8vFoWPSHgndx2Tf6KAMS0A2Bta6b8+5u3K4391frktaMEPj/XKqd8I8QV7cHpJP+yfNEwDA44hwjlhlTU69t8ig7LvaIbvv3fXVjN+V0yNd0nz1mKy7QXDOmxUb5M13Q07t7/utpWYlFqrhsQdmCQDwOCKcFwi3/jta+/15Y0h6atZKrXk9lm79Vu+p32ReL5dtNer9cbXjiduq7SpXO0sXh7rkdKoOig9z1ZHSHKfvuPyPnipTW5FWuTo3bdITUxuf7tykp8+T8xmpti9e65T8xJzL+rZp6vC9Y/Rt49Tu35XfZjArelNLvTSY2u+Krc/L9jkvd5iQL+a7r+xjLFixxCwBAB5HhHPruQHWrf82qxwBCQZapFMF0ddTBcOiUlmlwuSR+l1yMKDeb1Zruna8MxLejUhnzEE5f89ZYzfz3TqrV0swpjY+g3OThB7JRZ8nCXdL+41rCaPM6Nc/r2txSn5izmXRajlYl+pmwi0Tco/RrFK82v2di80KGy0rkSqziHx7IF9YMloLACC/COeWq6162ZSZuPXfkU6XV7vluNNxMiA76tpSjGqiQ2OLCvVhOe7btn1o0H25qFFe83fsXFzqhs5wvjpiRuvL/Y/20bB5PR0VzJ3vphanBmO+n782/qkMw683xKIz/GOSYC5lbe7r+jqMqvDuP151PvWAnsHKlxNuBrbVuMNCxl+/dnX9Lk6pkO8L7Klc6u6XPqeToMjYmfNyktAGAMCCRTi3WfEmOWQCoR4HW9d/Rzy8poLtMRPQV8vOVCUgKrju6+2Qw75tB+51yT6Tf1cURberLSqceubaqmdlo15wxlLvivl+/tr43Rn8BSAmmCcdl91f7qOuw0hseNfns9m54QnIcwHfdVDXb6e+fEmu34C6frsj128aty/Le2+5o3m8cWquO2iqG7TWLdKix90en5QRdyXybqWE3t0gTYzYAgCPHcK5zSIt2Z+kmKDmrhwedVvBg6VrktRIq1A42JW0Ffzmo0xap21VLj8oNTctg2kmOcqgNj4azNVNTKoJk7xyHxXeP0wV9u8NOMNHxlyHaa+fRVZskPdP6E6nbXJIj28+fkt6jl52/iKA/Bo+dV46rkzK2LJ6CR2gIzAAPG4I5xbzWrKHH6Vp/n004QYoXV/urMjewJRplV1cllVnyvwpk6eccpAJ+e0sQq/upOmWqmgTctMsJfBCdlGjdPo6gsY+WtyWfJ+Mrp+lxtTjC3cR86TC/AQAPF4I54jKYdC3XunLTidN3Rq+T9e46+BdM1djtxeA25flDWcinC7pODPpzlL56oaYjq/Ik8ZnJLS+RGT8lnTsdyeBmvtyJgCALQjnBSC42N9rM47XqjuVpuU3U5HZOdPUsFulVL49g9FY/JzRXUyN+emRDrcGP9ASO/Opx7tpCXdHOnSmfCQpjUl7/awzIZdOnZSOK2qR0VrmhTuU4qT0HD0rl24TygHgcUM4t9hA+IYbCgPPphgSMNpRcXjieura64zdlXMTbi16spFHIvRY32UZhPc5a4G/JuedwwzIjtXJxms3istTvxbX+fP0jW6nZnxjdZLhF72blpTXIbno9atNPppOsVeeMw0mIZq9bM9hvreLYChFAHhcEc5t9vCCfOSF0LqQHPEHYh2Q9TT7TrgblI9Gpu/8mImBkZ/4hmhU+6zyT8ZjJtPRY31Xpwnvck/+MdIC79teHXP6yXoyd3q015Tg6PHa2+JuFrzj3JWyVCXxZuaa7DYjriQGfq/jre+cxHyPctlWpfbXGDekpe8vEQfjJiryzmN8nXoy+Z+EaOHJ9hzme7uoJbKc6wwAjyXCueVO3/CG2wvIxupd0Q6IOiA7wVwP05d8RJbs6LHHffus1JP5eJ0ezWQ6ap96SMHUI5D4W+B926tjPliZo7pudePSfNUL6KvVzYLv3PiO8/joNeftGbnX5Y6xnqz+3HvNOyd13r7c/R2sVPtT5yy2zEady8HoMeqJirxtnOObGpSL7mmyTKks1/c6DKUIAEDeEc6t507U0z7UKxedwOwJy7CeyVKPYZ7zYfr8+/SnR73PXtnnjNltVqUwMNKhwqw7OU+EniwonMORS3RA9yYcytG5ifzlwKk/jy3d0d/JmfwprD7frHOoc+RMTKTHW4/fn3MT4W4TFX3/hxkMackkRLOX7TnM93ba8NgDswQAeBwtenpd3VdmueBUVQVlZCQmJgGYtVLZ/m6bNEu/7H1r9mOd67prPeIIMhNs3S6Htor07D9pxY0Y1w8A8ouWcwDJLauX1kY6oObVimpp3VpingAAHkeEcwBxJuTT/klnqWFXm9Ny6j62SJOzdmau39BTGiGVpj3e+VWPA5ulQa8cvyWfWlK+xPUDgPwinANIMHzqpOw9c0vGTN30bNwZuy8vbPqueYb0JmXsSr90HJ19OVEu/NnmtTJyx8peywCwYFFzDmBOlSwplj2hF+TTz27KuV/MYPQczCsdzDd8b5X86Mfn5MsvH5m1AIC5RjgHMOeWfHOxvPTDBqlcHpA1NRVmLWylS1l0i/lPT/cRzAEgzwjnAAAAgCWoOQcAAAAsQTgHAAAALEE4BwAAACxBOAcAAAAsQTgHAAAALEE4BwAAACxBOAcAAAAsQTgHAAAALEE4BwAAACxBOAcAAAAsQTgHAAAALEE4BwAAACxBOAcAAAAsQTgHAAAALEE4BwAAACxBOAcAAAAsQTgHAAAALEE4BwAAACxBOAcAAAAsQTgHAAAALEE4BwAAACxBOAcAAAAsQTgHAAAALEE4BwAAACxBOAcAAAAsQTgHAAAALEE4BwAAACxBOAcAAAAsQTgHAAAALEE4BwAAACxBOAcAAAAssejpdXVfmeWCU1UVlJGRYfMMAB4PS5d+Q156sUGWV5TImpoKsxa2un5jTO6M3Zef/qxPJh88NGsBIDnCOQAUEB3Md7/6vPReHpLzF/7BrIXtXtj0XWnc8B350Y/PyYMvH5m1AJCIshYAKCC6xZxgXnh+fuHv5Vef3ZSXfthg1gBAcoRzACggupSFYF6Yzv3imlQuD5hnAJAc4RwACgg15oWN6wdgOoRzAAAAwBKEcwAAAMASjNaCAlQur9fvkh1FYTl+tUMOZzoyWfEm6alrlKB5GjHVK+39F2TAPJ13OT1O71yJDI92S/PINbM+N2qrQtJZGVCffUx99l2zdr5k+XuRF6XS1PqMtNSvlIplZpXcko5Xzsol8yxTnSdC0v5Kh3mGeE17QhJab57IpIyNP5Duo+o83zar5hnXD8B0aDmHjw43b8vnjfGPkPTUt8nrZeXmfchGbdkmOVIfijm3PTWbZFuxecNcKF4jz6lgrgUra2Wbu4g8a9rTJqGt/mCO/ChR53ylhA5skSazBgBsRzhHBgISLFotO6p3yef1m6TWrC04Dy9Ic+87si7y6JaL5qW5pW56akLSWd0oG4tiR2oIBhrlYF1IjpSZFVouj/PhdfnllLs4PDogp91F5FWpLDf3tX3HupxWU/cx81ZzTO/SB975VY/9H0vPuF67RJavcF4GAOsRzpHEoOzzh8Orx2Tf6KA4BURFjdJZyAE970ypRUCH8rBcHDom7ZFz653XgGwMrHXfnnN35XC/u79cl7Rghsb75VTvhHmCvLg9JJ/2T5onAFAYCOeY3sO7cnqkS5qv9kYC+mv+ll6kVtbk1Hs7NzxXO2T3vbu+mnHvvB6TdTcIznmzYoO8+W7Iqf19v7XUrMRCNTz2wCwBQGEgnBcIt145rg68Zm2KFmxTOx5p4S6XbTXq/XG1zjNu/X54QfaOhp3FjZXJt5/RceqOj/o9KVvivRr4kLyepi67tnhtbC23Wj4yV/Xxal+6RCXmXNa3pagbV8dfudpZujjUJadTdVBUNz+54Z2v5I+eqkzOSbm6hm3qO/lr49P9rqWnf++cz0j5OzCT8+nxjtG3jVO7f1d+m8Gs6E0t9dJgar8rtj4v2+e83GFCvpjvvrKPsWDFErMEAIWBcG49N3C59cpmlSMgwUCLdKYLrkWlssoJrrvkYEC936zWdK1zNuUpA+EbpvVcfbazxjOL45yFpypD0lnXElvLrZY36vp4FQhzSY9M8rnaly5RiTmXRavlYF2S8BvpjDko5+85a+xmflc6q1er7+Svjc/uGurzpX/vJNwt7TeuJYwyM+Pz6dC/Z94xmlWKV7u/c7FZYaNlJVJlFpFvD+QLS0ZrAYDpEM4tV1v1simLcOuVo3Xg3XLc6egXkB11bSlG4dAhRwfXsBz3bds+NOi+nE15SqSDYal82xfUZnec2dK12gEZDvfKvqtmf04dt9u6LypQxnS0nI2yNmfIQOf7jaqw6X0/9dDnU9+wBCtfjg2vi0vd0BnOV0fMaH25/9HunY+0VDB3flfU4tRgzO+Lvzb+qQzDrzfEojP8Y5JgntX5VLbVuMNCxv+etavfs4tTKuT7Ansql7r7pc/pJCgydua8nCS0AQAsQji3WfEmOWQCjB63WdcrRzy8poLYMRN8V8vOVCULKmjt6+2Qw75tB+51yT6T11YUZVv+4QtquTjOLDnja9+44CsZ0XXcHZFAmpuOlv7yFPX9RmLDpj6fzc4NT0CeC0S/X21R4dQz11Y9Kxv1gjOWelfM74u/Nn53Bn8BiAnmScdlz+586t+znfrXLMnv2YD6Pdsd+T2bxu3L8t5b7mgeb5ya6w6a6gatdYu06HG3xydlxF2JvFspoXc3SBMjtgAoAIRzm0VaXj9JMaHKXTk86raCB0vXJClRUSFmsCtpq+3NR5m0pmZo1seZrbD8MuwPkVGR8pvFZbPfn1eeosLmh6nC6b0BZ7jD3H6/fCmXH5Sam6vBNJMcZVAbHw3m6qYw1YRJ2Z7PaX/PLLJig7x/Qnc6bZNDenzz8VvSc/Sy+zuJvBo+dV46rkzK2LJ6CR3Q14SOwADsRji3mNfyOvwoTXPlown3P/gJNeBzLSz/aDrfWX2cudifFwr1MJK+jouxjxa35dlnYMq0yubiBmFOlclTTjnIhPx2FqFXd9J0S1W0CblplhJkeT4z+j2z1Jh6fOEuYp5UmJ8AYDvCOWYm0slxdkHusTBvN07zoPRlp5Ombg13av518M5xh9yCcvuyvOFMhNMlHWcm3VkqX93g3pQgvxqfkdD6EpHxW9Kx350Eau7LmQAge4TzAhBcnKZXo9cKOZWmpTKHagM1prQgsZOjTceZ0/15ITvcHemAmPLhL+WIdJ7Nfa393Ijt5DsTzugupsZc1/w7fRpSdcjN9nwaaX/PrDMhl06dlI4rapHRWuaFO5TipPQcPSuXbhPKAdiPcG6xSN104NkUQ9hFO9YNT1xPXSucK5GOnyIXw9FJc7I+zof3xBkoI0XLcnQEmFRSjR4yw/MyXcu2F7JTfr9U7sq5Cbe2P9nIIxF6rO9MxmWfsxb4a3LeOcyA7FidZnjN4vLUr8V1/jx9o9upGd9YnWT4xSzPZ/T3rDb5qD/FXnnONJiEaPayPYf53i6CoRQBFA7Cuc0eXpCPvNBUFzexjg50elp4J4wMykcj03fWy5oKZduq2qSnrtG0mnfHjtqR9XHek380LcsH/ZPUqP3piWmi9cupbazW42H7t53JeYnuf2fcZ8ROguN1aDXfT7835nVzfhoTh4ocGPmJbyhJs63zimYm09FjfVenCe8ZH2f2To9GZ3/trG+Lu1nwjnNXylKVxJuga7LbjLiSGPizPJ++v0QcjJuoyDuP8XXqyeR/EqKFJ9tzmO/topbIcq4zgAJBOLfc6Rve8HBmYh2vw5wOdE4A1cPKJR+RJXsq/Pg756lQdrBytRPM9ZjietzqeNkdZ3QUF10CEekcqPanJ6bRwyR6Qz4mF5Zhtc9gpX/bmZwXf8t27GccrIwLofe6zPCM6vvp99aZ9zoPc37UsSSWhajvGBniz2zr286ZTEcdqx5SMPUIJDM4zmypG6zmq15AX61uFnzX0Hecx0cTr31K3jlLVn+e1flU53Iweox6oiJvG+f4pgblonuaLFMqy/W9DkMpAgAyQDi3ng53emKWXrnoBDyPCqZ65kU9hvmcd8zUIXhQ9l11xxRPXiaS5XHqkKYnnfFv4+zrHWkeuZt+yMepG7LX2Wfs9u6kRJmdlwFnTHR30psItf/j4cQRQfR7nUmVwuo7mXWOKTORjh4fPOk+/efG/330uXGPdbrxw2dynFnTAd2bcChHv2uRvxw49eexpTtZnU/nJsLdJir6/g8zGCKUSYhmL9tzmO/ttOGxB2YJAArDoqfX1X1llgtOVVVQRkZi/rMOAJYple3vtkmz9Mvet2Y/1rmuu9YjjiAzwdbtcmirSM/+k1bciHH9AEyHlnMAyIdl9dLaSAfUvFpRLa1bS8wTACgMhHMAmFMT8mn/pLPUsKvNaTl1H1ukyVk7M9dv6CmNkErTHu/8qseBzdKgV47fkk8tKV/i+gGYDuEcAObY8KmTsvfMLRkzddOzcWfsvryw6bvmGdKblLEr/dJxdPblRLnwZ5vXysgdK3stA7AINecAUEBKlhTLntAL8ulnN+XcL2Yweg7mlQ7mG763Sn7043Py5ZePzFoASEQ4B4ACs+Sbi+WlHzZI5fKArKmpMGthK13KolvMf3q6j2AOYFqEcwAAAMAS1JwDAAAAliCcAwAAAJYgnAMAAACWIJwDAAAAliCcAwAAAJYgnAMAAACWIJwDAAAAliCcAwAAAJYgnAMAAACWIJwDAAAAliCcAwAAAJYgnAMAAACWIJwDAAAAliCcAwAAAJYgnAMAAACWIJwDAAAAliCcAwAAAJYgnAMAAACWIJwDAAAAliCcAwAAAJYgnAMAAACWIJwDAAAAliCcAwAAAJYgnAMAAACWIJwDAAAAliCcAwAAAJYgnAMAAACWIJwDAAAAliCcAwAAAJYgnAMAAACWIJwDAAAAllj09Lq6r8xywamqCsrIyLB5BsBWS5d+Q156sUGWV5TImpoKsxa2un5jTO6M3Zef/qxPJh88NGsBAPlAOAcwp3Qw3/3q89J7eUjOX/gHsxa2e2HTd6Vxw3fkRz8+Jw++fGTWAgDmGmUtAOaUbjEnmBeen1/4e/nVZzflpR82mDUAgHwgnAOYU7qUhWBemM794ppULg+YZwCAfCCcA5hT1JgXNq4fAOQX4RwAAACwBOEcAAAAsAThHJg35fJ6/dvyeWNIXi82q6xRKk2tW+T9d0PSecJ7bJEm8ypyp2mP/xxvV+dcnecV5kUAwGOHcI5YZW0qLOrAmP7RU1VuNsgVE1TrN0mtWYP507SnTUJbV0rFMrMCeVKizvlKCR3gRggAHleEcwBxSmW5uffqO9Yl7a90mMdZueSuRg5d+sA7v+qx/2PpGddrl8hyWs8B4LFEOEdyU73S3vuOrEvxaB65a96IBWu8X071TpgnyIvbQ/Jp/6R5AgB4HBHOYYkyearILCLWig3ypqn9fr+11KzEQjU89sAsAQAeR0zfXyBqyzbJa5WNsjESYMMyHP5E9t64JgNmTZSu394lO6RX2vsvqNfLZVvNy7IzEJCgecdwuFdtq1+Lo2vOq1e7LefOtpnIcn9qXz2VqyWYSSgPd8s69V0TFK+V1yuflef8+5oalI8Gu+T0Q7MiTm2VCrqVIsevdshh/Z5kn6H2l/TcZrE/fX5qy5rkkO+76vPx0egFkcq35WAgHD2WJHSHwdB680QmpWf/STl52zydI84+y/tl71uXZbb/wvRNhS7ZQGaCrdvl0FbJy3XOBNcPAPKLlnPruR0lO6v9wVxT4TDQIp3pRvooKpVVKkweUcH5oC9MasFAo3TmuvNlFvvLKJinoEP253UtsiN+X0Wr5WBdZp1WU36GesQH8+z25964dKobHv931efjYF1Idi42K2y0rESqzCLy7YF8YUEwBwDkH+HccrVVL8sOJ9SF5eLQsWjd99VuOT6l1wdkR12bbNOLCXRobFGhPizHfdu2Dw26Lxc1ymtl7mIC9VpnklFa9ONIqm1mur97XZH3rOvtlot6Xapa9/hW87I26azU04qr8zLaHbON3p9u7Q1WvpxmiMKAPFVpPmNqUPZd9Z3b3mPSPpqb/W2r2ZX0+rWr63dxSoX8DG5OLnX3S5/TSVBk7Mx5K1pTAQDA3CCc26x4kxwygVCXPey+5+uE+fCaHO4/ZgL6atmZqpVYB8/eDjns23ZAheJ9YXd5RVGOh0TMy/7K5fXK1c7SxSF1XkZiy0/0/pqdG4KAPBdIvb+NgdUyPKoCc78uSfF3cL0rAzElJlnuT12/nfryJbl+A+r67Y5cv2ncvizvveWO5vHGqbnuoFkqwdYt0qLLaMYnZcRdibxbKaF3NzDeOQA8hgjnNlusgpL+Gf4kRT3yXTk86rZKB0vXJClRUaFQ10KbZ343H5m0nEqa0Vp23zPvSTCL/c1E8Rp5Trc4q2P8MNWx3BtwWuKTnxcj3J3ZqDPZ7m/a62eRFRvkfWcSnDY5pMc3H78lPUdnX2+OmRs+dV46rkzK2LJ6CR2gIzAAPG4I5xarLXL/gzz8KGUaFnk04QYoXe/trHgMeKE3TenN540tstF5c2ppz6tflvvL6PpZakw9vnAXMU8qzE8AwOOFcA7AKZ15w5kIp0s6zky6s1S+uiGm4yvypPEZCa0vERm/JR373Umg5r6cCQBgC8J5AQguTtkDM9qqOzUhN50VBS6TvwB4fy3QwysmKbuJeWQ8HGQas9xf2utnnQm5dOqkdFxRi4zWMi+CFUvU/05Kz9Gzcuk2oRwAHjeEc4sNhG+4oTDwbIpRR6IdFYcnrs8+hFqhVL6dcoQV4+F1+aXuSJnyvORYlvuLXr/a5KPpFGc48RKTEM1etucw39tFMJQiADyuCOc2e3hBPnL6UerhEkNypMw/Eshad+IfJ9wNykcFP53+NTnvfdfVm2SbPwQXl8s2/3ePdIQ156VqrdTGhGb1/qo26WlMNcTkTGW5Py/U6yEm69Vrvm1q9QRMethJ8zydppZ6aVjmLldsfV62M4LHjGV7DvO9XdQSWc51BoDHEuHccqdveMPtBWRj9a5oB0Q9GY4TzPUwfclHSJmVtJ0f1aNmrXlj7pwe7TWdW/UEPb591e2Sg9VNscH3Xpe0j+o0r85LZYt0+t/fqN6vZ+NU523aVvhMZbU/FeoHve/kTlTkbeNMSjQ1KBdzOIhN7pTKcn0vxFCKAADkHeHceirg9euJbnrlohPSPXr6fj0ZTupp3wvOwwvS7EzOE5tY9fT4x4cuJdyADIx0uJMxhdW5MOscantnoqD+rpyem6z2Z76T3iYq+v4PMxhikkmIZi/bc5jv7bThsQdmCQDwOFr09Lq6r8xywamqCsrISExMAjBrpbL93TZpln7Z+9bsxzrXddd6xBFkJti6XQ5tFenZf9KKGzGuHwDkFy3nAJJbVi+tjXRAzasV1dK6tcQ8AQA8jgjnAOJMyKf9k85Sw642p+XUfWyRJmftzFy/oac0QipNe7zzqx4HNkuDXjl+Sz61pHyJ6wcA+UU4B5Bg+NRJ2XvmloyZuunZuDN2X17Y9F3zDOlNytiVfuk4Ovtyolz4s81rZeSOlb2WAWDBouYcwJwqWVIse0IvyKef3ZRzv7hm1sJ2Ophv+N4q+dGPz8mXXz4yawEAc41wDmDOLfnmYnnphw1SuTwga2oqzFrYSpey6Bbzn57uI5gDQJ4RzgEAAABLUHMOAAAAWIJwDgAAAFiCcA4AAABYgnAOAAAAWIJwDgAAAFiCcA4AAABYgnAOAAAAWIJwDgAAAFiCcA4AAABYgnAOAAAAWIJwDgAAAFiCcA4AAABYgnAOAAAAWIJwDgAAAFiCcA4AAABYgnAOAAAAWIJwDgAAAFiCcA4AAABYgnAOAAAAWIJwDgAAAFiCcA4AAABYgnAOAAAAWIJwDgAAAFiCcA4AAABYgnAOAAAAWIJwDgAAAFiCcA4AAABYgnAOAAAAWIJwDgAAAFiCcA4AAABYgnAOAAAAWGLR0+vqvjLLBaeqKigjI8PmGYC5tnTpN+SlFxtkeUWJrKmpMGthq+s3xuTO2H356c/6ZPLBQ7MWAGAzwjmAjOhgvvvV56X38pCcv/APZi1s98Km70rjhu/Ij358Th58+cisBQDYirIWABnRLeYE88Lz8wt/L7/67Ka89MMGswYAYDPCOYCM6FIWgnlhOveLa1K5PGCeAQBsRjgHkBFqzAsb1w8ACgPhHAAAALAE4RwAAACwBOEclimX1+vfls8b35aeqrVmne28Yw7J68VmlTVKpal1i7z/bkg6T3iPLdJkXkXuNO3xn+Pt6pyr87zCvAgAQIYI54hV1uYE4+kePVXlZoMcK14jzxW5i8HKWtnmLqZhgnH9Jqk1axDVtKdNQltXSsUyswJ5UqLO+UoJHeBGCAAwM4Rz2OXhdfnllLs4PDogp91FZKVUlpt7qL5jXdL+Sod5nJVL7mrk0KUPvPOrHvs/lp5xvXaJLKf1HAAwA4RzJDfVK+2978i6FI/mkbvmjbl2Vw73e/u4ZtZhVsb75VTvhHmCvLg9JJ/2T5onAABkjnCOAlcmT5kyGOut2CBvmtrv91tLzUosVMNjD8wSAACZY/r+AlFbtkleq2yUjZEgGpbh8Cey98Y1GTBronQd9i7ZIb3S3n9BvV4u22pelp2BgATNO4bDvWpb/VocXXNevdptOXe2zYTZnzq2i0PvyO57ZnWE93pYjl/tkMMPzWrfdskMjx5L3kKvjrGncrUEMwnl4W5Zp85RguK18nrls/Kc/5xMDcpHg11yOnJ88crVdWiSQ7596/P40egFkcq35WAg/vvF0h0GQ+vNE5mUnv0n5eRt83SOOPss75e9b12W2f5L0TcVumQDmQm2bpdDWyUv1zkTXD8AKAy0nFvP7fDYWe0P5poKlYEW6Uw3QkhRqaxSIfSICsAHfSFUCwYapTNnnSh1KUq3XFRLG6sTj6e26mUngA+P/iRlcJ2pjIJ5CrVVIfm8rkV2xJ+TotVysC5VZ1f3RqJT3bj4963P48G6kOxcbFbYaFmJVJlF5NsD+cKCYA4AKByEc8t5wVa3lF8cOhat+77aLcedjpMB2VHXlmJUEx02W1SoD8tx37btQ4Puy0WN8lqZu5hAvdaZZJQW/TiSdJtrstv5XHU8q32hv3iTHKoMOC3xexNawaP15f5H+2jYvJ7CvS7f+92bgpQ18vGt5mVt0qmPR5/P0e6YbfR50a3LwcqXE24wttV4Lfyx16FdXYeLUyrkZ3CzcKm7X/qcToIiY2fOW9GaCgAA7EI4t5kXbFUg1OUSu+/5wu3DayrYHjMBfbXsTDW04dSg7OvtkMO+bQdUuN1n8u+KohwOieh9rgr2h5zjKZfXVzdKUB//YKYlMnNJHU/lamfp4pA6nyOxJUH6vDSbG4znAr7zoq7DTn0ZklyHAXUddkeuwzRuX5b33nJH83jj1Fx30CyVYOsWadFlNOOTMuKuRN6tlNC7GxjvHACQMcK5zRargKV/hj9JUQ5yVw6Puq3gwdI1SUpUdCjuSjoc4c1H07ROpxmtJbGmPOr0DbclW7c+H6lxW/11EM5VOcuseGOoq+/2YarvcG/APX7/+Zz2OlhkxQZ535kEp00O6fHNx29Jz9HZ15tj5oZPnZeOK5MytqxeQgfoCAwAyAzh3GK1Re5/yIcfpUnDjybc4KXry50V8+2a7L7aq44pIBsDARVou9OG+bzyQnaakp3PG1tko/PmqIyug6XG1OMLdxHzpML8BAAgE4Rz5FxtoCba0XJxGTN35tPty/KGMxFOl3ScmXRnqXx1Q/R6IH8an5HQ+hKR8VvSsd+dBGruy5kAAIWOcF4AgirgpuS1Bk9NyE1nxTzzOlyGu2Wf7tgZqT+fY5n85cD7K4MeXjFJuU7MI8kwkmmvg3Um5NKpk9JxRS0yWsu8CFYsUf87KT1Hz8ql24RyAEBmCOcWGwjfcMNk4NkUwyVGOzgOT1y3oMPlWjmix0iXQdl345qcHvmJ01EyWLkrxQgvuVQq3041pKTn4XX5pe64mfJ8Jhe9DrXJR8UpznAiJCYhmr1sz2G+t4tgKEUAwMwQzm328IJ85PTb1MMlhlTA9Y8gstY3gc+gfDRn0+lnbluNW699ccjrhHpXDg/q+nM9/nmq4R5n65qc987R6k2yzR+6i8tlm/+cRTrQmvNZtVZqY0K6en9Vm/Q0xh2rF+r10JT16jXfNrV6QiQ9XKV5nk5TS700LHOXK7Y+L9sZwWPGsj2H+d4uaoks5zoDAGaAcG650ze8YfoCKuDuinZc1JPoOMFcD++XfESWWUnbaVI9ataaNxoqpB50Rn2M6wCqbjD2OuOWq2Abv02OnB51bwD0MetJhCLHWLdLDlY3xQbte11mHHV1PitbpNP//kb1fj37pzrfsa3w0ZsMMRMVeds4kxJNDcpF5wbBNqWyXN+bMJQiAAAFg3BuPXeinvahXrnohHSPnr5fT6JjwTCFxZukx1fOEm9gpMMd/zzQkmL2zVlSNwDNzmRAsQlZT8d/fOhSwo2LPh5nEqewOodmnUNt70xM1N+VeE7NPvQ2UdH3fzjd0JQKkxDNXrbnMN/bacNjD8wSAACZW/T0urqvzHLBqaoKyshITLwCEFEq299tk2bpl71vzX6sc113rUccQWaCrdvl0FaRnv0nrbgR4/oBQGGg5RxY6JbVS2sjHVDzakW1tG4tMU8AAMgc4RxYsCbk0/5JZ6lhV5vTcuo+tkiTs3Zmrt/QUxohlaY93vlVjwObpUGvHL8ln1pSvsT1A4DCQDgHFrDhUydl75lbMmbqpmfjzth9eWHTd80zpDcpY1f6pePo7MuJcuHPNq+VkTtW9loGAMSh5hxARkqWFMue0Avy6Wc35dwvEjv+wk46mG/43ir50Y/PyZdfPjJrAQC2IpwDyNiSby6Wl37YIJXLA7KmpsKsha10KYtuMf/p6T6COQAUCMI5AAAAYAlqzgEAAABLEM4BAAAASxDOAQAAAEsQzgEAAABLEM4BAAAASxDOAQAAAEsQzgEAAABLEM4BAAAASxDOAQAAAEsQzgEAAABLEM4BAAAASxDOAQAAAEsQzgEAAABLEM4BAAAASxDOAQAAAEsQzgEAAABLEM4BAAAASxDOAQAAAEsQzgEAAABLEM4BAAAASxDOAQAAAEsQzgEAAABLEM4BAAAASxDOAQAAAEsQzgEAAABLEM4BAAAASxDOAQAAAEsQzgEAAABLEM4BAAAASxDOAQAAAEsQzgEAAABLLHp6Xd1XZrngVFUFZWRk2DwDAGDhWrr0G/LSiw2yvKJE1tRUmLWw1fUbY3Jn7L789Gd9MvngoVkLTI9wDgCA5XQw3/3q89J7eUjOX/gHsxa2e2HTd6Vxw3fkRz8+Jw++fGTWAulR1gIAgOV0iznBvPD8/MLfy68+uykv/bDBrAGmRzgHAMByupSFYF6Yzv3imlQuD5hnwPQI5wAAWI4a88LG9cNMEM4BAAAASxDOAaAQrNgg77+7RZrMU2Qm2Lpd3t9TbZ4BgP0YrQU5UC6v1++SHUVhOX61Qw7bOmJU8SbpqWuUoHkaMdUr7f0XZMA8tVrls/KNF1vkXz69TJ4wq/7wm5/Jlx92yh/M88fNn7z2N/JNdT7+8JsPJfzhJ2btAtO4Rd7ftVIqxm9Jx9Gzcum2WT8rpbL93TZpXjYpPftPysmcfOYc0DclB+oloShgvF/2vnVZpvsvgA7nh7aWiFz5WNo/GDJr86VUmlqfkZZ6de2WmVWiruEr6hqaZ5nqPBGS9lc6zDPEa9oTktB680QmZWz8gXTn7N/K7HH9MBO0nMOxreZt+bzxbempKjdr0lkrR9R7P28MyevFZhXmXmW7BP7yNSn2BXPtiad/KIG/+gv5E/O8ED3R8jfyrQ+z+A7qnOjzoT3xreUx52XB0OFUB3Md6t6yJ2wUiuFTJ2XvmUmR9Zvl/dZSszY/mva0SWirP5gjP0rUOV8poQP8pQmFiXAOx81HYedncHGZ8zOt4jJZ4SxMyG8LaV6FhxekufcdWRd5dMtF85L9gvKN/+2HTvh0Wohf+3P5nXmET/TJ76/+3/J7940FKCh/UqfSy+++mHnr/+hl+e+/0wvj6hxcXoB/PSiV7a/qVmPduj3z1tYF4fZleeOVDqfV0X18LH3mpUzpgN5xRaRi6/Oy3f0/rzwoleWmraPvWJfv+B/T6zjHLn3g+x3Z/7H0jOu1S2R53q43kDuEczgGpibcBRXOa92l1BaXuqUhapubzgrMucoN8i+/pX6a0g1/CP3DZ38jX3YXcnlXpXxdf7dswrkMy3/7K32T8hcFfg6SC7Y+L83qvmXszHl7y04KxKUPdKgvkeZXNySWts2l8X451Wv+/xX5cXtIPu2fNE+AwkM4h+vRxLS1mwke3SuMOu1cW7FB3nw35NQQ5uvP5E80POO0mv++fwHWVH//e045y4L8brNSLa26VlqFuyOnCHezNySndHnLsnppbTSrsGANjz0wS0DhoUNogagt2ySvVTbKxiKzQsIyHP5E9t64liQgmw6a4nV0LJdtNS/LzkAg0mI0HO5V2/o6QUY6Sw7Kvt4uOe2sNNstFrk92iG77zkrpbZKBdPKgAyPHpPmkbvO+2I7hGawv3jFa+X1ymflOf82U4Py0aA6lnSlM9lu59C18y2ycYYdQuM7Hs1NZ7pn5Zt/1SJ/8q3pilX75MvX/iZa0uLUpf9QnvjNh/K7pJ0jg/KNv/prKf5W3Hbe+t952wXlT1r+Zyn+QYOv4+mH8mVcq73fE+o6/ElGnVUz/W5a3HF+/y/kW68kmWnvdz+T8F9l0Cm2Un2vF/99bN3+7/rk4dn/W/7bZ8n+v2T25yVrjVukc9dKGTvTJW+kCOfe72LfsQ55r9es1Fa4f90avh27nft+73c2vkNoqXr9eWlZXxLpfDl2Rd0YfJCm0+WKatne0iDP+LcZvzV9R7xst3NUy5snNktDhh1CY3idS/PUOdQ53+VZHGcSdCicGbcjsFjT2Znrh5mg5dx6Ovi+LZ3V/mCuqTAaaJHOdJ0yi0pllQqvR1RwPugLr1ow0Cid9ZuiJSwP74n7/1+l8u3I55XJ83q7ooBsDKw160RWLXZnOrs9pYN5nMUZ7s9Hh/3P61pkR/w2RavlYF3qTqrZblcQKpfLExmF1zgVbqfIP4yPus8TpCghMWUzznY64H/41/JNXwDVnnj6Nflmi/9Me1RgVQE6ZWfVD/9GvlFpVmgz+W5xx/nEsuQTefwhg3rzJ1SwD/yl+l5xxyjfapDiV/5aAsm+26zOy+w0/euV6n8n5dd/l7rVfGTM/dP9sgr/X3B0nXqbHDrQFveXHVMDrULwp/Fh5UkVeFVQD/nCslaxvl4OvZu8DESHn84Dm6U5fhunI17qvyplu11O3L4pv9a1yOu/nb+OgstKpMosIt8eyBcWBHNgpgjnlqutell2OKE8LBeHjkU7M17tluNTen1AdtS1yTa9mECH1BYV6sNy3Ldt+9Cg+3JRo7wW6f95T/7R+TyfslrZaBYTa9HD8o+PzGKEOpbqTPdnlLU5rfDO9xvtlnazjbedbm0KVr6ceAOS7XY5cKm7X/qczkZzWAs82unr9Pmh23KsW4d9HUHdh7/1Oxpe/zCeop1OB2P9Mz6cm1Avdf/ebXn/XZ98+dd/afbxl/Llb5x3qc/3p2zNbVnWgdfplHniL33HqLY716f2s0yK/7f2aKDN+LupR1xr+B+6/yL29RNu18CU39ejg/krbqiO7VCrjlcdo/bED/597E2ElvV5mS2vM2H6cOH96b6iYqnz07FilTxj7n2Srr97P64Vt0Sad22WBt2C7uu4uPfYLfflZGUgjVvc4QnVzUPfmY9lr9nG225MvZK082W22+XMhKlFpqMgAHsRzm1WvEkOmQCqy0V23/O1VD+8Jof7j5mAvlp2pmolntJlKh1y2LftwL0u2ecOziIrirzt7spvnbAdkKcWOyuktki3YA3KRf3eohr5gRN0y+XbzuspRmrJeH9aubxeudpZujikvt9IbImO3q7ZCfYBeS6Qi+1y5PZlee8tN1CkKjfIqVSBOoknlrkh+Z91ykkmRcu6F+qdFu1zKnz+lQr9o16EG5bf/+3Pku77iZZ/L8VOS7wO138hX3427Huf2q77byT81x/Kl/9HipKTGXy3ZNzjTvN9Hc/KN00pzO9P/Hlch1p1vPoYz+m7rWXyLxti24izPS+zt1SedC7lpIy4K5Lr/a07ckn50mjr9pO6RfqW9F1Rywnr1Q3l2H33uZ8eP/2Vk3LS13FxuPesM8KJltAy/6Ju1dflNCflvVNDMWFfb/eGE+xL5Jnv5WK7uVAiTz5pFudEqQRbt0iLLn+b7hpiDq2U0LsbpIkbMRQYwrnNvFFRwp+kmNjnrhwedVulg6VrkpSMqFCva6/NMz9v6EQ/b50boMvlB6XqxmBqQs47673QXiZPxZTX+M1sf1K8Rp7TnzXVKx+aevYE9wac4Q5jvl+22xWqaUtVPEEVItWP3/1aBUh3Tbw/qXdDanxLsxvqdXj9SwmnGfUk9hieleIf6O365Mt09d6jn6Q8Hu+7ZdcZ1BuCMfX31Z5oaXE6nP5BhesvP3PXxftD36+d449vAc/uvOTTfbnj3FdESyecchgVCD/TJS/LVsq/McEkWLHE+Tk+Fn9DOSk9utbbPPPzymZieC3wzigk7qoE5qahon5V9OYg2+1ybE47Cuqa9hO6s3ibHNLjm6ubnp6js683x8wNnzqvbi4nZWxZvVMulc8O/MBsEc4t5rZcq/+TeZQqgSreKCu6vtxZkb3IcIoOE8LVvk+Hbzj78Ned52QYRe/mo6hROp1JjZI9WqKlNZ5stytQbqAel//eN81/4r3hFlO2QpvwntDS7K3vk/+etFOkCqlmtJiYUO+1ev/m72JKa2bC+27pW75TyWwIRu+vCdOevwRZnpe8mpAvnD9SrZTvO6Unphzm7n255ITQaAtxVYUuJ7kln6UKxpkyLfC63OWQE0STPTZLQrfdbLcrYPrX+gt3EfPE/dsXUFgI54gyQd+ZiMjUm18MX4t2FtV1594ERI/rMIp55wXEMfnDdI2z07awe2E2vqV5+pCbtFwm4xb9VGbw3ZLJaAjGDPeR9LtkeV7yLLZTqFsO45Su3Jl0wqG7vlq+T4mFw/sLwpyITJjUJR1nJt1OrvkeVx2uxmecDs5OydZ+ty9FXsoQgRwgnBeAtLN25nJCIF8I3+a02nudPq/JeV2V4mudT9uanymv1T/cHenMmfLhH+ow2+0KUmatw9p0nUGfMGE24bNSrY+YZYhOyXy3LFveM6s3z0RQvrElSbnPvJ0XLbFcJZXhvzMdKXXnz8ZvOy3PTumKGZnEKRFZsVT0bURiZ9AsmNAvejhC05kz5cM/hGC2282JSblzxyzOiQm5ZGYlZbSW+eHehJmSrbghRQHbEc4tNmDKSSTwbIpRR6IdI4cnrucghEZHbPm2M1xitNOnWzO+Wp6vdG8Gkg6jOFMPr8sv9f5Sfr8Ust0ulZmWBOVzEqIcdQZ9ouVvnNFKtPiWbi/Up26BTnGDMOY+f+IH/7MbYpOpfNY9/mS875Yl9/tOF4yH5Q/O9P4N8i+/76xI4O/U+tBXk571eckJr1wlg1FFbt9XV10pXypNTiDxSlfMZ+hwmK4z6ExFhiNsmNmoKtlul0pWobdU/k29Lu9hiL2sZPv/ffneLoLrjMJEOLfZwwvykdOPUg+XGJIjZb6RR/TkO87EP/rJoHzkTAY0W2bElqJG2eEMEjMQ6dzp3SisWOxvUZ8tr0Or+X5Va6U2JmyXy7aqNulpjB8qMtvt4nk3I3q0G/UZzjpFndttaUJ/U0u9NDjNkDLHw76pgDjjmUGXSfGLvkCswvE3/+r/ksAPlsnvf+NEuISW9WlLM0wLcsJY4qOX5b+b4PvNv/oL+ZNK3x/v9WQ/r/2NfOsvMxgD/OkW+cb3o+/Rkxl947X21IHf4bVaN0ix7/Of+P6z6jjME+P3/e5QiX/yyt/IN3370efmG3p8dqdT67g8jBtRJuvzkiOX/nOmI5dEW9m/r+vKfaUr7mcske//a/0s/ZjpmZuQk3/rHlvzge3yZmu1BGP+DZRKU+sWef/ElrixxLPdLp75vrJSWvRnOOuUFdXTj8rhdUq98tukHWCRXrb/35fv7aIYMhOFiXBuudM3vOESA7Kxele0w6OefMcJ5nqYxeQjpMxWTOmKKXnRExL5W9Rn7V6XtI+6o8FsrGyRzjp/p85dcrBytQTV949OjGRku12Mu3Juwrn7kaD+DG97dW4PVvo6v86jmdQ0eyFUnn5NAh/+X/It/VDh+E++pYLnX/+5PHQCTfxnTV+akbpcZlj+2/9hhhL8lgrof/nX7j6d/bpjnzszhKYa5SQS7tUNxSvRbd3JjH6YsqXbNSy/v+rebDzxA9+2r7wm/9I93KjP/saMR75MBXT/MbqTJjnB/K//Qv5bzPefzXnJkYxHLol2Cm3QdeX+0hWnlKRErddDGOawFbH3rOzVU+Hrz966WQ6Z0TDcR5uEnJFKJDEYZbtdDG+sch3Y1Gd42x/YLKGWamd9KsHvqc9XP/v+89zPDhrpnEudP4AZIpxb764c7tcT6/TKRSeke/T0/XryHT1dvlmVA9EhD8Pyy7C/NT7JJEU5MjDS4U6qFFbfyaxzTJkJhvq7kn7HbLfz05/RPupOWhQxNag+M3VNfV4mIXLMsKbZCaHmwBzj8vtzesIdN3gmLwOZZadHZ0IhPRnPeOz2ekp8PfxgwtT9firc/9VfysOYY1Zh15no589TDnvo+UP3/z/p9/WXpnh+/+GfS/hEnylxMX4Xe35izfK85MSQnNJBdlm97J7mT/puC7krJnh6JS9ajkPi8KmT0r7/Y+nRw9WZdQ61H2eCobfOJv23ke12fvoz9p5xa+0j9LCF/zld2U61tOoJkNIN5Yi0sv3/vnxvp83pkJnAHFv09Lq6r8xywamqCsrIyBy1WgHAvCuV7e+2SbOevXP/yRmFE8Rq2hOS0Pp8nkdz7aRf3XDMvoOr/uuA7iyLzARbt8uhrWLNvxuuH2aClnMAsNaEnDzaL7o0pfnAdLXYSEUHtdD6mbe+5sSyemltzKYzI7K2wvyVBChQhHMAsJkeO/uYLuHQU5ET0GfKbUFVQe3Kx3ke5zpaG9+wq83U1etHdtfw+o05q59aEPRfRiLn+ICZzGr8lnxqyV+buH6YCcI5ANiu96y8sV+3oCuMPjFjY3ps9Q/y0Qk0VqQ23t81Ikt3xu7LC5u+a54hvUl1zful4+hcj5efmT/bvFZG7nj9uYDpUXMOAIDlSpYUy57QC/LpZzfl3C+umbWwnQ7mG763Sn7043Py5Zc5GYMYjwHCOQAABWDJNxfLSz9skMrlAVlTEz9mKGyjS1l0i/lPT/cRzDEjhHMAAADAEtScAwAAAJYgnAMAAACWIJwDAAAAliCcAwAAAJYgnAMAAACWIJwDAAAAliCcAwAAAJYgnAMAAACWIJwDAAAAliCcAwAAAJYgnAMAAACWIJwDAAAAliCcAwAAAJYgnAMAAACWIJwDAAAAliCcAwAAAJYgnAMAAACWIJwDAAAAliCcAwAAAJYgnAMAAACWIJwDAAAAliCcAwAAAJYgnAMAAACWIJwDAAAAliCcAwAAAJYgnAMAAACWIJwDAAAAliCcAwAAAJYgnAMAAACWIJwDAAAAliCcAwAAAJZY9PS6uq/McsGpqgrKyMiweQZgoVm69Bvy0osNsryiRNbUVJi1sNX1G2NyZ+y+/PRnfTL54KFZCwCYCcI5ACvpYL771eel9/KQnL/wD2YtbPfCpu9K44bvyI9+fE4efPnIrAUAZIqyFgBW0i3mBPPC8/MLfy+/+uymvPTDBrMGADAThHMAVtKlLATzwnTuF9ekcnnAPAMAzAThHICVqDEvbFw/AMgO4RwAAACwBOEcAAAAsASjtQDTKd4kPXWNEjRPI6Z6pb3/ggyYp/lTLq/X75IdRWE5frVDDls1Yl2pNLU+Iy31K6VimVklt6TjlbNyyTzLVOeJkLS/0mGeIV7TnpCE1psnMilj4w+k+6g6z7fNqnnG9QOA7NByjpRqyzbJkfqQfN74duTRU7NJthWbNwBxmva0SWirP5gjP0rUOV8poQNbpMmsAQAUJsI5kiiX12tC0lndKBuLYkdcCAYa5WBdSI6UmRWPg4cXpLn3HVkXeXTLRfMS/Eplebm71Hesy2k1dR8zbzXH9C594J1f9dj/sfSM67VLZPkK52UAQIEinCOOKZkI6FAelotDx6Q9EkqPyb7RQRmWgGwMrHXfDsQb75dTvRPmCfLi9pB82j9pngAAChnhHLHKmmRHkV4YlH1XO2T3vbu+muq7cnqkS5qvHpN1N66ZdbDWig3y5rshp/b3/dZSsxIL1fDYA7MEAChkhPMC4dZ/R2u/P28MSU/NWqk1r8fSrd/qPfWbzOvlsq1GvT+udjxxW7Vd5Wpn6eJQl5xO1dHw4V2zkETxWqckJmZf9W3yepmpd4iR7XH6latz06b24a+NT3dujBTHOWf19Fntz/tuvm2cmv+78tsMZkVvaqmXBlP7XbH1edk+5+UOE/JFml8NzK1gxRKzBAAoZIRz67kB1q3/NqscAQkGWqRTBdHXUwW8olJZpULhkfpdcjCg3m9Wa7p2vDMSio3iNfKcaTU/f89ZMwPqOFX4/LyuxSmJidlX0WrZUb0rdZ36TI/TY7bprF6t9uGvjU9/bmqrUh/nwToVgKuS3UhkL7v96evufTezSvFq/ncuNitstKxEqswi8u2BfGHJaC0AgOwQzi1XW/WyKTNx678jnRKvdsvxKb0+IDvq2mSbXkygw1+LCvVhOe7btn1o0H25qFFe8wfmxaVueAwPyGlnxQzochgVPoendDmM7zidOvWw85aN1Tk6TocK5s42alHt07+dvzb+qfgQW9YmnZWmnn6021dP7+5PD8wZrHw59Q3PTGW5v201eqhEvRR73dvVdb84pUK+L7Cncqm7X/qcToIiY2fOy0lCGwAA1iOc26x4kxwywU6PZ63rvyMeXpPD/cdMQF8tO1O19uqw3Nshh33bDtzrkn1uXpYVRdHtaotmUZesPrP96jvS3K/LYfy1DbpOvcPsr1S+nSr0zuA4tdqqZ2WjXnDGGu+K2c5fG7875i8A/rIddT5HrsWMUa731+zcEATkuUAuWs+z3J+67judPwQkXvcBdd13R677NG5flvfeckfzeOPUXHfQVDd2rVukRY+7PT4pI+5K5N1KCb27QZoYsQUAChbh3GaRluxPUkw0c1cOj7qty8HSNUlKP1S4G1Rh2Tzzu/nIpN4cGvCOsbhctukaeV1jbWrBDzphM0lLtmOmx1kuPyg1Ny2DaSYBiq+N98p2VKD/MFXZzr0BZ5jE5OdzhrLd37TX3SIrNsj7J3Sn0zY5pMc3H78lPUcvO38RQH4NnzovHVcmZWxZvYQO0BEYAAoV4dxiXkv28KM0BeCPJtwgpOu2nRXZG5gyrauLy7IKppFOq3W75KCukdc11nHjpOdGmTzllHVMyG9nEl690FvUKJ2mg2Xio8Vtkc+FLPeX0XW31Jh6fOEuYp5UmJ8AgMJEOEfUbIK+rq32Oq1ODTr11br2vN3Un3vlKVhgbl+WN5yJcLqk48ykO0vlqxvcmxLkV+MzElpfIjJ+Szr2u5NAzX05EwAg1wjnBSC4OM10nF7r7NSE3HRWzMLD6/LL6WrYk1orR6p1bXXY7ZjZ3+XUV+va84F0wy7OWpoa9mS8m49wd6SDZcpHf5pymUzNcn9pr7t1JuTSqZPScUUtMlrLvHCHUpyUnqNn5dJtQjkAFCrCucUGwjfccBd4NsXoIdEOh8MT12cfJuWunJtwm7jTjliix+xONm751A05F9Mx01Mu3zZLuXFNzjuHGZAdq9OMg15cHvuad/OR8nzO0HR/Ychyf9HrXpt8dJtir6xnGkxCNHvZnsN8bxfBUIoAUOgI5zZ7eEE+8kJoXUiO+AOxDsh6mn0npA3KRyO5aaEeGPmJb4hGtc8q/2Q+ZlIcPWZ3dZLwXtQoh5K9Xx9njkvPT4/2mhIcPQ56/CRH3nHuks6atWad5nWg9X23mO9QLtuq1HaNqYZ89NyTf4z8hcH3fdU1iZ1UKMv9+f6CcTBuoiLv/GdSF5//SYgWnmzPYb63i1oiy7nOAFDQCOeWO33DGzYvIBurd0U7EuqA7ARzPdxe8pFOsqMCZWSoPrXPSj2Zj9d50UyKo/aphwaMjiRyTT40Y5kHk75/0Bl3PKfUjUvzVS+gu5McRc6N7ziPj15z3h6hh3x0jtV8tzpvG3e7g5VqO/Xd05fL+P/C4Pu+6pocrPTfDChZ7U9dg8Hod9MTFXnbON9L1/S7u7dMqSzX90gMpQgAQNYI59bTYVlPWNMrF53A7AnLcFhPauMPybni36c/Bep99so+Z+xts8oYGOlwJ9XxH6M3OZAe+zzm2HNEB3RvwqEZnBt9rM4kTmH1PrPOob6rM1GQHjd9mnPqfF+9X/Pcob9vOHGElaz259x8uNtERd//YQZDYTIJ0exlew7zvZ02PPbALAEACtmip9fVfWWWC05VVVBGRmLiDoB5Uyrb322TZumXvW/NfqxzXXetRxxBZoKt2+XQVpGe/SetuBHj+gFAdmg5B5Bby+qltZEOqHm1olpat5aYJwCAQkY4B5AjE/Jp/6Sz1LCrzWk5dR9bpMlZOzPXb+gpjZBK0x7v/KrHgc3SoFeO35JPLSlf4voBQHYI5wByZvjUSdl75paMmbrp2bgzdl9e2PRd8wzpTcrYlX7pODr7cqJc+LPNa2XkjpW9lgHAetScA7BSyZJi2RN6QT797Kac+0XcqDuwlg7mG763Sn7043Py5ZePzFoAQKYI5wCsteSbi+WlHzZI5fKArKmpMGthK13KolvMf3q6j2AOAFkinAMAAACWoOYcAAAAsAThHAAAALAE4RwAAACwBOEcAAAAsAThHAAAALAE4RwAAACwBOEcAAAAsAThHAAAALAE4RwAAACwBOEcAAAAsAThHAAAALAE4RwAAACwBOEcAAAAsAThHAAAALAE4RwAAACwBOEcAAAAsAThHAAAALAE4RwAAACwBOEcAAAAsAThHAAAALAE4RwAAACwBOEcAAAAsAThHAAAALAE4RwAAACwBOEcAAAAsAThHAAAALAE4RwAAACwBOEcAAAAsAThHAAAALAE4RwAAACwBOEcAAAAsMSip9fVfWWWC05VVVBGRobNMwDAQrB06TfkpRcbZHlFiaypqTBrYavrN8bkzth9+enP+mTywUOzFkC2COcAAGvoYL771eel9/KQnL/wD2YtbPfCpu9K44bvyI9+fE4efPnIrAWQDcpaAADW0C3mBPPC8/MLfy+/+uymvPTDBrMGQLYI5wAAa+hSFoJ5YTr3i2tSuTxgngHIFuEcAGANaswLG9cPmD3COQAAAGAJwjkAAABgCUZrwfwp3iQ9dY0SNE8jpnqlvf+CDJiniFcur9fvkh1FYTl+tUMOM3IZ5l2pNLU+Iy31K6VimVklt6TjlbNyyTzLVOeJkLS/0mGeIV7TnpCE1psnMilj4w+k+6g6z7fNqnnG9QNmj5ZzxNhW87Z83pj80VMfkiNl5VJr3gsAWtOeNglt9Qdz5EeJOucrJXRgizSZNQAKH+EcGQsWBWRj9S7prN+Um4D+8II0974j6yKPbrloXgKQuWDrFnmzsdQ8y7dSWV7uLvUd63JaTd3HzFvNMb1LH3jnVz32fyw943rtElm+wnkZwAJAOEdSF4f8oVk/jkn7UK84RURFjXKoyvzXGIAFlkjDrjZ5f8+GxDKxfBnvl1O9E+YJ8uL2kHzaP2meAFgoCOfI0F0ZuHdBmocGnWfBxWXOT1hsxQZ5892QUwP6fut8taoiH4ZPnZeOK5NSsb5eDp3YPo+t6Mi34bEHZgnAQkGH0AJRW7ZJXqtslI1FZoWEZTj8iey9cS1Jx0nTYVC8jpXlsq3mZdkZCERa1YbDvWrbxE6Xuub8YMBtOd99z6z08zpxpuq0WbxWXq98Vp7z72tqUD4a7JLT03ZcXCtHGltk40w6hGa7vxTb/XL0khy+d9esiafOY1WT7CxdLcH46zCqrkMW+0t/nOXqujfJocro/vR1+2j0gkilvk7pO4TGdxzr2X9STuaw05j7+brT369l+Z7npXl9iVo7KX3HTsp7vaWyPWGds1mMYOMGaX2xXhoitcqTMnalT458MOT+lcZP3Wy8f6BeKsb7Ze9blxNfF7XPd9ukeVmq75qs06LZX7faX7pzs6Jatrc0yDPq+3ijOI+N38pxR7xqefPEZslkfsW+Yx0pz+fuXeocqeWxK/3qPCY7T7nn/C6Up7ouM0OHwpkJtm6XQ1sl5/++s8X1A2aPlnPr6aD9tnRW+4O5pkJeoEU6G0PyerFZFa+oVFapUHhEBfWDvlCoBQONWdWO1wZq3M95dC8hPNdWheTzuhbZEb+votVysO5t6clxKUx2+1Pnsyb1djuqd8mRpH8UMOfRF5Rd5jrUheRIiu+X9XGq/XVWx+5PX7eDal87F5sV826JtOhA7IRwrUQaXtyggnncul3xHdZ0kA7JIRUko8FcU+F3/Wan9Xd7TmtoVfBVx5nYadHs78B2eTPFXxd0+Ok8sNn5Pv7pVdyOeHb9VWK497K88UqX9MxHK/qyEqkyi8i3B/KFBcEcQG4Qzi1XW/Wy7HDCWVguDh2L1oBf7ZbjU3p9QHbUtck2vZhAh78WFerDcty3bbspTdG1469lXJ2iW43b5FClOzXzxfA152dEWZt0Oq+p4xztlnbvOM3+dGtasPLl1DcSM5Xt/sqanJCsW633XfWdz95jsm807LxlY3Xi+ayteta9OXK2i+7LrcVX+5sKSNIsmeVxbqvRQyXqpdjr3q6u+0W1r9gbhOQudfdLn9NZTGTszPk5alXTo0XolmrdQU2FQr2/ZfUqyMatk5Xy/Ub90xVsfV6anZCsW9V9nQgjHdxKpDmHI1AEWxvcm4DxW9LhHJf36JK9x27J2HiJxGR2T+MWObTVtP6f+Vj2RrbrcLdTr1RsfT5HNxJD8p7v89M9krWaR03IyQ9OmuPTN0bzXIsOAJgRwrnNijeZMOyWL+z2l1s8vCaH+4+ZgL5adqZqldZhsrcjplRj4F6X7HNzqKwoSr7dxur4oRRNq7F6bTjcHVfyUi6vq9e0i0PqOEdiS230/txa9YA8F0hxnDMyi/2p19pVuG7u1+Uk/vKVu3J6pMOcl1L5doqbiOGJS3FlKLoWX+2vX33mSHw5TJbHqa77TuceKPG6D6jrvjty3adx+7K895Yb5t44NXcd9aLBfyLSOc2/7ov407Jig+w2gVf/Kf49fyfC20Ny8q1ooG/Jcav0WP+v48pQJmS496y8oc5T4jkqle0vrnSWnLKcU7GlNs52KgDrG4lnvmdfjbdzfOZmR7ei756TFv5SZ6SYFl0+NT4pI+5K5N1KCb27QZoYsQVYEAjnNlus/sOnf4Y/SVFXfFcOj5oOmqVrkpSoqHCna5rNM7+bj0w6n4HhqV6ntbn5RlyrefEaec5pVe6VD5PVqWv3BpxhEpMf5wzNcn+R2vDictlWtkmO1IScMdz1TYiut9dh+am4spGB8I1IK/eRqrVSm8lfALI9zmmvu13GxxKDv3/dyFjcaBJPmvKQK30pWvMn5OTf6tCrQmX9qpy0+A7/XbSV+83WaglmEmJWrJJnnNZ2PQqJuypB72+lT/3I1XEWDF3/f0J3Nm6TQ7pUaPyW9BzNT307YnmdgceW1TtlVnQABwof4dxitUXu/8EOP0qV7JRHE+5/EHV9ubMiN/xDKbabco+gOo7Y1mbDC5NFjdIZ09ruf7TIRufNOTDL/enOtUfq1XvqdslBXcuva8GLnFSemh6T/WqvU1KysVLXmJv96ImZUoX1LI8zo+tewIIVS5yfY2P3nZ9J3VFhQ//MVR3z7cvyxn5d5lMiDVt1jbkbYjrf1bXmKcK6dxOhQs8hJ4gme2TWgXM+BBu3yPu6Vl7dYDidQ+fyryfq8YW7iHni7w8BoLARzjGtgZFP3MmBAs/mrmZ8vugacK9z7dSgUweu/xrQburPvXKfpFRA392vbljUe/eNqm2nwjKsJ2YyYb2nRoV081ZYyCvz2d8lHWduqaCuWxujYf39PSqkm7fODz1aS7IbgMTHm776/UR6pJztcmjXShXY3Jr+N3I9aou+2XHq3/W5nHQ7x75KXfu8aHxGQrrztdOfwu2/MZdlbADmHuG8AKQdU9xrnZ2akJvOirlwTT50Ws8DsmN1khFevNb7cHektT3lI9MhEtPJen9r5Ui1rgE3HWT7u5w6cP3XgIFkfxFIRb339Ijatr/DneHU6aSprlOgJXZyplmel4U+lnxFxVKzlITXaj0Xdcy3J+TSqbMqqJ90A+b+j52Os3rUlpi6bK/1/srHkY6YKR85GEIwF5zW8hPuSDm6tXzvK3E1/Tmnz+VJ6biiFhmtZV64f4malB5nWE9CObAQEM4t5tU5p26xjnY4HJ64PvvQm8bAyE/cTojJRnh5eF1+qV/LVcv6dCU6s93f1A05l3Qs83L5tlmKV1uWplVcd9L0av/9gTrL44xe99rko/AUl8lTGYzWYuskRF79t6xvSDHKSbQj5lj/zWjovX1fnH6iKUJgdASYRMHGNK3it4fkPa/G3X/DcPum/FrvMOVx5tpsRmsplaa5bi1/nGT7byff20UwlCKwkBDObfbwgnzklFno4RJDcqTMP6LHWneiISekDcpHCSOF5Fq08+nGyvjWc+81c5wJNdjuMIw9jamGfPTck3/UYdYZfcYXhtV33RbzebPcn7rBOOT/fPX+2jL1fn0+k5We61Fzqt0x5Z3SleLYEWBq9VjyTot8fJ14lsfphXo9FGa9es23jXOcenhM8zydppboGOK5G+4vB25flm7d0uoMlxg3Dree7MeZSEg/uSXdMX+evy93zCguIX8JygpTxuGMAJOECj67d212xvx2SlfU+/2Cap9vqlCrxdbBex1TzXEm1KbrSY10S3XuhnzMlr4x0aUN+WktX/iy/beT7+2ilshyW/59A5g1wrnlTt/whs0LyMbqXdGOhHpSGyeY6+H2ko/IknP3LkVaz2PKNzQ9RKEpfYnpMOk8zDCMattUQxS67sq5CdP5VH+G77serFzrrI/Ian9eeU7c56v3O5P9qJscXUueQN0k7R1yO4O6Ew75roN6dHpheapX9sbfJGV1nCrUD/a6rZ5moqLIvvRx6lp592sUrEsfeMMluuNw6xZD52E6MLrDLJ6VS3oxIjqKizgTFXnbmDKOM11ueUU8dTNw5JjbGdSdcMi3P/U4pPbpdOocT9Jpsves7D2jR5uJ60jqPMykRup7zH8wejCPreWlslz/3wFDKQJAThDOraeCWr+esEaHQ7PKoaeN15PapJ6+Pfe8lmAdbpsSWqUHRjrcyZHC6tjMOseUmYCnv2vaY9Wf0a72Ebv9oPrMxJFLstmf8/nOpEFmhaY/39Sgn445x1ED99zOoO51iE3GekIjvX17inr6rM6LMzqMu01U9P0fZjAUZn4mIcqWCtpv6Yl8osfo0tPp68l+UkxFrsOyM2mQea6ZiYV0J7iEYRsNPXOm7gzq7i/2PXoa/h4VbFNNPT986qQ7OZIers6sc6jPcSYmeuvsvJ/bYV1DT2t5zmT7byff22nDYw/MEoCFYtHT6+q+MssFp6oqKCMjyf5zCgDIj1K3FEn6U97gzIT+q4Suq0dmgq26pEucCb3m+yZR4/oBs0fLOQBg9pbVS6u//wDm3opqaU3V1wJAwSKcAwBmYUI+7XdLhWL6D2TZUfb6jZjiIcRp2uPr9xDpL3FLPrWg1Vzj+gGzRzgHAMyKrsvfeyauL0CW7ozdlxc2fdc8Q3q6j0a/dBy1Y9jMP9u8VkbuFHhvdcAC1JwDAKxRsqRY9oRekE8/uynnfnHNrIXtdDDf8L1V8qMfn5Mvv3xk1gLIBuEcAGCVJd9cLC/9sEEqlwdkTY0zVywspktZdIv5T0/3EcyBHCCcAwAAAJag5hwAAACwBOEcAAAAsAThHAAAALAE4RwAAACwBOEcAAAAsAThHAAAALAE4RwAAACwBOEcAAAAsAThHAAAALAE4RwAAACwBOEcAAAAsAThHAAAALAE4RwAAACwBOEcAAAAsAThHAAAALAE4RwAAACwBOEcAAAAsAThHAAAALAE4RwAAACwBOEcAAAAsAThHAAAALAE4RwAAACwBOEcAAAAsAThHAAAALAE4RwAAACwBOEcAAAAsAThHAAAALAE4RwAAACwBOEcAAAAsAThHAAAALAE4RwAAACwxKKn19V9ZZYLTlVVUEZGhs0zAADst3TpN+SlFxtkeUWJrKmpMGthq+s3xuTO2H356c/6ZPLBQ7MWmDuEcwAA8kQH892vPi+9l4fk/IV/MGthuxc2fVcaN3xHfvTjc/Lgy0dmLTA3KGsBACBPdIs5wbzw/PzC38uvPrspL/2wwawB5g7hHACAPNGlLATzwnTuF9ekcnnAPAPmDuEcAIA8oca8sHH9kA+EcwAAAMAShHMAAADAEozWAhSccnm9fpfsKArL8asdcni+RvYq3iQ9dY0SNE8jpnqlvf+CDJinM2fJ9wMiSqWp9RlpqV8pFcvMKrklHa+clUvmWaY6T4Sk/ZUO8wzxmvaEJLTePJFJGRt/IN1H1Xm+bVbNM64f8oGWc8SorQrJ541vJ3301IfkSFm51Jr3PrZ0KPXOSVW5WWkB77jqN6W8Rt71teq4Acs17WmT0FZ/MEd+lKhzvlJCB7ZIk1kDPA4I58hYsCggG6t3SWea8Pc4qA3URFqLg6VrHt9z8fCCNPe+I+sij265aF4CcinYukXebCw1z/KtVJabe9m+Y11Oq6n7mHmrOaZ36QPv/KrH/o+lZ1yvXSLLVzgvA48FwjmSGh495gtd+nFM2od6xSkiKmqUQ49ty2u5/KA04JRuHB8Nq3NRIz8oNi8BmCNLpGFXm7y/Z0NiGVW+jPfLqd4J8wR5cXtIPu2fNE+AxwfhHBm6KwP3LkjzVTegP7YtxsVr5LkidfMycV0Oh2+ocxGQ5wKUiMyLFRvkzXdDTg3o+63z1aqKfBg+dV46rkxKxfp6OXRi+zy2oiPfhscemCXg8UGH0AJRW7ZJXqtslI0qGLrCMhz+RPbeuJak453pUCdex7xy2VbzsuwMBCKtTsPhXrVtYqc9XZPcWRlwWs6bR+6atX5r5Uhji2yUQdnX2yWnzVrN3VainfiK18rrlc+q8Orfb3fyY0723qlB+WhQ7SNlh0D1vaqaZGfpagnGn5dRtY+cb6eUtcnn1avl4tA7svueORcpO0Bmfx1c5eq6N8mhyuhx6vd/NHpBpPJtORiI6zDpddBM0yFzuus7s9+zeNOdj3gz/H5x4juO9ew/KSdz2GnM/Xzd6e/XsnzP89K8vkStnZS+Yyflvd5S2Z6wztksRrBxg7S+WC8NkVrlSRm70idHPhhy/wrlp2423j9QLxXj/bL3rcuJr4va57tt0rws1XdN1mnR7K9b7S/duVlRLdtbGuQZ9X28UZzHxm/luCNetbx5YrNkMr9i37GOlOdz9y51jtTy2JV+dR6Tnafcc34XylNdl5mhQ+HMBFu3y6GtkvN/39ni+iEfaDm3ng54b0tntT8waSrgBVqkszEkr6cqqygqlVUq9B5RAfGgLxBqwUDjnNaOOx0P61pkR/x+1SM+tKV8b9FqOViXqvOi+V6+YOcy56UuJEdyup1rW2C1+t9BOX9PP7sm58Pqx3SlLVldBzfYd6obAf9x6vcfVMe4c7FZkTOz+D3LSr6/X7aWSIsOxE4I10qk4cUNKpjHrdsV32FNB+mQHFJBMhrMNRV+1292Wn+357SGVgVfdZyJnRbN/g5slzdT/HVBh5/OA5ud7+OfXsXtiGfXXyWGey/LG690Sc98tKIvK5Eqs4h8eyBfWBDMgXwhnFuutupl2eGEl7BcHPLVgV/tluNTen1AdtS1yTa9mECH2xYVtsJy3Ldt+9Cg+3JRo7xW5i5mrKxWNuqfUxNy01kRLyBPVbY5rbMyNSj7rvpr149J++g18z6jzLxXf7/RbmmPvNc9Tt1KFax8OSEY1lY964ZIZx/RbdzaeLXdVECSZZ9st3OtleedQx2I/MXgdFify+lKW2Z+HbbV6KEE9VLsdW9X1/2iOsbYG4s46vM6zWgy8Q/3XCea3e/ZzM3q+xmXuvulz+ksJjJ25vwctarp0SJ0S7XuoKZCod7fsnoVZOPWyUr5fqP+6Qq2Pi/NTkjWreq+ToSRDm4l0pzDESiCrQ3uTcD4Lelwjst7dMneY7dkbLxEYjK7p3GLHNpqWv/PfCx7I9t1uNupVyq2Pp+jG4khec/3+ekeyVrNoybk5AcnzfHpG6N5rkUHgBwjnNuseJMcMsFV/3l/9z1fGcLDa3K4/5gJTqtlZ6rWXh1CezvksG/bgXtdsk+3+CoritKFSj9dgtAmPdW65VicmutUZQsbA6vdDqX9uiTFXzpxN65kpFxer3Q/7+KQ+n4jsaUT+jibnQCbOvwOT1yKK3vRtfFqu/53UpTluLLaztyYXAz7bjDuDTgjlExbgz+T66Cu+04nQyde9wF13XdHrnuO5OL3bCZy9f1uX5b33nLD3Bun5q6jXjT4T0Q6p/nXfRH/67Jig+w2gVf/Kf49fyfC20Ny8q1ooG/Jcav0WP+v48pQJmS496y8oc5T4jkqle0vrnSWnLKcU7GlNs52KgDrG4lnvmdfjbdzfOZmR7ei756TFv5SZ6SYFl0+NT4pI+5K5N1KCb27QZoYsQWPCcK5zRar/zDon+FPUtTd3pXDo27ra/JwqMKPrtk2z/xuPjKpMIVg5a64VldTgqBe03Xj6YKvTPe6x3Su1COffOiUiSSRIvwOOJ0x9XG+LEeq1kpthiUX2W6nxZa0eDIpbZnhdZj2uk9D13x7Ld9xj3Y9wky8Wf+ezdBsv1+ejY8lBn//upGxuNEknjTlIVf6UrTmT8jJv9WhV4XK+lXuuZil4b+LtnK/2VotwUxCzIpV8ozT2q5HIXFXJej9rfSpH7k6zoKh6/9P6M7GbXJIlwqN35Keo/mpb0csrzPw2LJ6p8yKDuB4HBDOLVZb5P4f0PCjVMlVeTTh/gdD1zU7K+aO7qCpyzKab8SVpsRJe7x+XkhLU4bxudP5NAk9xvbVXqcEYmOlrhU379cTJaUL3dlu55W06BKVmOPTHRf1+tyN2pLRdc+hfP+e5fv75VuwYonzc2zsvvMzqTsqbOifuapjvn1Z3tivy3xKpGGrrjF3Q0znu7rWPEVY924iVOg55ATRZI/MOnDOh2DjFnlf18qrGwync+hc/vVEPb5wFzFP/P0hgIWOcI6kEsc5f0ea+7tiyjLmnQrau/vVsV09JvtGB1XgDsuwnijJhO6eGhW2zVtjZLOdV2ufxmM7vCTs4JX57O+SjjO3VFDXrY3RsP7+HhXSzVvnhx6tJdkNQOLjTV/9fiI9Us52ObRrpQpsbk3/G7ketUXf7Dj17/pcTrqdY1+lrn1eND4jId352ulP4fbfmMsyNsAGhPMCEFycptem1/qcsoOmxbzW2HB3wo1AwiPd0HwP78rpkS4VuDvcGSudToXqvAVa0k+WNIPt3JIWXSPtO6bIw9RI53hCorTXfQ7k+/cs398v3yoqlpqlJLxW67moY749IZdOnVVB/aQbMPd/7HSc1aO2xNRle633Vz6OdMRM+cjBEIK54LSWn3BHytGt5Xtfiavpzzl9Lk9KxxW1yGgt88L9S9Sk9DjDehLK8XggnFvMq4+WwLMphrGLdqhM10HTWg+vyy91qE35/VKrLUvRKq7pToVejXRcAMxuO1PSMnVDzqWoyT43oWu5c1PaEr3utclHRykuk6cyGM0kUzn/PZum9CVn38/SSYi8+m9Z35BilJNoR8yx/pvR0Hv7vjj9RFOEwOgIMImCjWlaxW8PyXtejbv/huH2Tfm13mHK48y12YzWUipNc91a/jjJ9t9OvreLYChFPF4I5zZ7eEE+cvrv6WHsQnKkzBf89KQ99d5wdIPyUSYdMK3jdTQ03y+h5ltPFtQmPY1xQ/jp0UWq3bG3nRKU4thAXKvHFPdGlfHXNWe7nSlpSRdMIx1Nc1Ha4t206Pr2evXdfefEGTFHD8tonudEzn7P7sk/muPeqa+ls05Rn+H/Drn6fk0t0THEczfcXw7cvizduqXVGS4xbhxuPdmPM5GQfnJLumP+PH9f7phRXEL+EpQVpozDGQEmCRV8du/a7Iz57ZSuqPf7BdU+31ShVoutg/c6pprjTKhN15Ma6Zbq3A35mC19Y6JLG/LTWr7wZftvJ9/bRS2R5bb8+wbygHBuudM3vGHlArKx2jeCip60xwlMutQi+UggBeFelxlBJK6DpvMwkwWp7//tmHB3QfYOuZ063YmDYkeW6fTC3VSv7PWHySy3c0taVOaaShNMH94Tp2EnJ6Ut6qZlsNdtFTQTMUWOUY+YMzUoF5MMujIbufk98/6CoMKUvpa+zzhYudZZ78r/98u3Sx94wyW643DrFkPnYTowusMsnpVLejEiOoqLOBMVeduYMo4zXW55RTx1M3DkmNsZ1J1wyLc/9Tik9ul06hxP0mmy96zsPaNHm4nrSOo8zKRG6nvMfzB6MI+t5aWyXN+vMpQigDwhnFtPBZl+PWGNDpVmlUNPq64n7Uk9vXmhGBjpcCe7CavvZNY5pszERLojatx3HLjndup0z0tskvNGlUk2hfzMt/NGaYkfQjGeGVJRhducjNqibiSazTmJip6PD6cZCnPmcvN7pq9l+6g7eVSEPq/huJOXg++Xn0mIsqWC9lt6Ip/oMbr0dPp6sp8UU5HrsOxMGmSea2ZiId0JLmHYRkPPnKk7g7r7i32Pnoa/RwXbVFPPD5866U6OpIerM+sc6nOciYneOjvv53ZY19DTWp4z2f7byfd22vDYA7MEPD4WPb2u7iuzXHCqqoIyMpL/dhQAwOOi1C1Fkv6UNzgzof8qoevqkZlgqy7pEmdCr/m+SdS4fsgHWs4BAJjOsnpp9fcfwNxbUS2tqfpaAAsY4RwAgJQm5NN+t1Qopv9Alh1lr9+IKR5CnKY9vn4Pkf4St+RTC1rNNa4f8oFwDgBAGrouf++ZuL4AWbozdl9e2PRd8wzp6T4a/dJx1I5hM/9s81oZuZPr/j5AImrOAQDIk5IlxbIn9IJ8+tlNOfeLa2YtbKeD+YbvrZIf/ficfPnlI7MWmBuEcwAA8mjJNxfLSz9skMrlAVlT48wVC4vpUhbdYv7T030Ec+QF4RwAAACwBOEcAAAkWLr0G/LSiw2yvKKEFv4CoFv4dZ+Gn/6sTyYfFPgEKI85wjkAAIihg/nuV5+X3stDcv7CP5i1sJ3ubNy44TtObfwDSnAKFqO1AACAGLrFnGBeeH5+4e/lV5/ddPo0oHARzgEAQAxdykIwL0x6FCDd2RiFi3AOAABiUGNe2Lh+hY1wDgAAAFiCcA4AAABYgnCOBaJcXq9/Wz5vfFt6qtaadXMp3/ubS953CcnrxWYVMsB5g21Kpal1i7z/bkg6T3iPLdJkXkXuNO3xn+Pt6pyr87zCvAjMEuEcMWqrQk7gTPboqQ/JkbJyqTXvtUrxGnmuyF0MVtbKNncxDROs6jdl931mvL/8qy3bJEfUNYu5hjWbZBtBEliQmva0SWjrSqlYZlYgT0rUOV8poQPcCCE3COfIWLAoIBurd0lntoF2Lj28Lr+ccheHRwfktLs4d/K9vxlRNx41IemsbpSN6pr5BQONcrBO32SZFQByJti6Rd5sLDXP8q1Ulpe7S33HuqT9lQ7zOCuX3NXIoUsfeOdXPfZ/LD3jeu0SWU7rOXKAcI6khkePybred3yPY9I+1CvOlE9FjXKoyvxXwBp35XC/e6zNI9fMurmU7/1lSv9FYJfsCOhQHpaLQ+q6+a7hvtFBdQ3VTVag0EtxABstkYZdbfL+ng0SNGvybrxfTvVOmCfIi9tD8mn/pHkCzB7hHBm6KwP3LkjzVTegB0vX2FnekrEyecqUpSwoZU2yw/leg7Lvaofsvqeum/OCdldOj3Spa6huvG7YdEOxwK3YIG+aGuD3W+erVRX5MHzqvHRcmZSK9fVy6MT2eWxFR74Njz0wS8DsMX1/gdD1w69V6jIFs0LCMhz+RPaqkBUNXx7Teiq90t5/Qb1eLttqXpadgUCkNWc43Ku21a/F0jXnnZUBp+W8eeSuWeu3Vo40tshGHf56uxLKOWZ2nB51fFVNsrN0tQTjtxtV2z00qyLM90sRrlMee1mb9FT695FGuNsXYLPcn09+rl/0OC8OvaOCuVk9LW+7sBxXgf7ww8x/XyKK18rrlc/Kc/5tpgbll6OX5LC6QYiV7feLqlXX8tA01zLpdUlxnB8Nqt/lhN8zT7naX1PM/vTxfTR6QaTybTkY8M6b+1o83XEstN48kUnp2X9STt42T3PA/fxb0vHKr2X5nueleX2JWjspfcdOynu9pbI9YZ2zWYxg4wZpfbFeGiK1ypMydqVPjnww5P61zE/dbLx/oF4qxvtl71uXE18Xtc9326R5WarvqjstPiMt9f7aaLO/brW/dOdmRbVsb2mQZ9T38UZxHhu/Jd1Hz8qlnJ3TannzxGbJZH7FvmMdKc/n7l3qHKnlsSv96jwmO0+55/wulKe6LjOjbyZ1yQYyE2zdLoe2Ss7/fWeL61fYaDm3ng4yb5v6YbPKocJFoEU6040UUVQqq1QYOaKC0EFfGNF07XFua8ezPU5zfAlBy2yn66NzWEKTUTDPqTxev0gn1UE5n3Ewj7N4pr8v6vvVhOTzuhanlCZmm6LVsqN6V+r69ix/P7c59fQZ3mT5OJ2dUxznwTo96k6y3zP3RiJ+f17t/s7FZsW8WyItOhA7IVwrkYYXN6hgHrduV3yHNR2kQ3JIBcloMNdU+F2/2Wn93Z7TGloVfNVxJnZaNPs7sF3eTPHXBR1+Og9sdr6Pf3oVtyOeXX+VGO69LG+80iU989GKvqxEqswi8u2BfGFBMEfho+Xccl5Ltm5pvTj0E6dMwaFbAFeroGHCWGwrthsooi29YTmutvVaMHWrow4bWnwL67Qt52rbz/W2U16rpyu74/RtN6Vei2m9jLZWysT0LdPatMceQ4VC/ReAuO8xE5nsL7vzkuX1865NTKt/JrL/ffH26bY+X1LXzzsP+q8hL6ubLv3dc/f7GfmOCdtskkPqBiiY5HfM4dvu4ugn8uFI9C8WTiu8ei2oPzOuBXxbjW4Z10ux169WXb/X1PVzb7gSt4uhy1pedcPv2JkueeNUbuuBoy3zXku113KdfJ2/tddt7fNa1c+r9ebYdAv1qyoIO5+hW+V9nQpn0XIe2d+4+syY1u5SCTY+I7tfXCnSn+QcNW6Rzl3qNX2cZ/rk1Kloi35QvbZbvVYR+a7mBUtEj2/uW9Gjf0WZfSdQWl5nxv3dfpCTc58LXL/CRsu5zYpV4DDBTv/HPxLstIfX5HD/MTnujBiyWnamal3WobdXBQfftgP3umRf2F1eUZRpq7QOy23SY0LT8MT1aKDNwXEOT+hgZ544dI17lzT36w6Xvs8rJHm+frVFOWiZm+nvi3qt/aq6RipQRYO5puvbO8x2pfLtVH8dmOH+vO94cSh+mwvSPDSollbL8wkt9epmQN/kKXq73b5grjm/Z862AXku4Nufun47TTCPv34D6vrtjly/ady+LO+95Y7qkOtg7jd25rwJphORzmn+dV/4L4+mQvZuE8x1qI0Ec+32kJx8q8uMQLFSWnLcKj3W/+u4MpQJGe49K2+o85R4jlTY16FdccpyfMFcc7Y7dkstlcgz37On9dzjHJ8ZzUO3ou+ekxZ+dXPTukVa9E3a+KSMuCuRdysl9O4GxjvHrBHObbZY/R+u/hn+JEWr3F05PKpDhbprL03WQVOFCt0abZ753Xxk0k8KwcpdMeNjf95o/rSvXhsOd8cG5lkc50D4hvMf2mDly3Kkaq3ULqQxuOfx+mUnu/1F+gQUl8s2PbZ6TcgZE1//3ritzgF5Kmn5x9x8v4QbCK/cZ6pXPkxV7nNvQC6qHzHXYdrrZ5fxscTg7183MhY3msSTpjzkSl+K1uYJOfm3OvSqUFm/yj0XszT8d7dkTP2s2Pq8vNlaLcFMQsyKVfKMbsF3RiFxVyXo/a30qR+5Os6Cof+KcSIknSfa5JAuFRq/JT1H81PfjlheZ+CxZfVOmRUdwDEbhHOLea2Ew49SJQrl0YT7f8S6ftdZMXd06cLxoWPSHFcyMavjfOiOAHNxKiAbK3WNubkZ0BMeFXhYz/f1G5gyQWxxWdJa7bniTnakrlndLjmoa+t1TXfc+Oq54n3HjdVtsZMp6dp181ed21NxTcReyC5qlM6YG07/Q3dyjpXR9StgwYolzs+xsfvOz6TuqLChf+aqjvn2ZXljf7/0jZdIw1ZdY+6GmM53da15irDu3USo0HPICaLJHpl14JwPuqzlfV0rr8uadFnLXP71RD2+cBcxT/z9IYBsEc6RlK6jjo5xbsbz7u+KKSXIGRXQd+sxw6+643BfnArLsJ7wyIT1nhoV0s1bkUYeb9QinPpw09lV3bxdHO2Wfeo6tuvhGtXvjFeekjORkhe3E2ckXNeZcB3uTt06Djt4ZT77u6TjzC0V1HVrYzSsv79HhXTz1vmhR2tJdgOQ+Hiz0WySVKls37NdDpl6eD0x0Bu5rjfXNzuv6JIpfS4n3c6xr87jGOuPs8ZnJKQ7X+v+FOp3e67L2LCwEc4LQHBxmukcvVbBqQm56ayYP7M+zofuONy7+zukWd8QXO1WQV19bqBl7iY9ykOQzdv1i8xamqaGPae81uqw8xeVdermTddz69rzgZj681xzE39syNEdPbulPdnQlN5Ni+4o67vZTPpI0jk47fVbACoqlpqlJLxW67moY749IZdOnVVB/aQbMPd/rIK6Op71m2Prsr3W+ysfO4En7SMHQwjmgtNafsIdKUe3lu99Ja6mP+f0uTwpHVfUIqO1zAv3L1GT0uN0dCaUY3YI5xbz6rEl8GyK4faiHd1iOmjm2WyOs7YsTau47nTn1WTPWUBK01lxlvJ//e7KuQk3uOoa/pRDNOqRYspyGN6nbsi5pH9RKZdvm6WcKWtz6tiP606oMcE6saNnhHfTkvI6JBe9frWyzVkTpzjDiaz0aC0WTkLk1X/L+oYUwyVGO2KO9d+Mht7b98XpJ5oiBAZbnzejvCQKNqZpFb89JO95Ne7+G4bbN+XXeocpjzPX1HEkC/5JHoljnJdK01y3lj9Osv23k+/tIhhKEblBOLfZwwvykZO1ArJDj/ftD1Q6YEWGoxuUj+ZzRJNsj1OPZlLtjvXtlK4UxwZGPVydV0ec+7rfa3LeO+bVm+Lql3XHxhyE13m4fgMjPzEjiJh96rp95xXNjLijx/quThPeZ6qoUQ4l24/+fjkuPXfrwAPylH9UlWl5HW995yTmu+thH9XxNrbFhnDfXyIO1sfWuHvnMb5OPZmmlugY4rojZH4CZgZuX5Zu3dIqJdKsxxf3j8Oth1KMDMd4S7pj/jx/X+6YUVxC/hKUFaaMwxkBJgkVfHbv2uyM+e2Urqj3+wXVPt90hkuMr4P3Oqaa40yoTdeTGumW6vgx3PNP35jo0ob8tJYvfNn+28n3dlFLZLkt/75R0Ajnljt9wxuuLSAbq30jqOiA5QS7sBy/mnzEi3zK6jhVeN075HYGdSccih0hptMLP1O9sncObj5Oj/a6LVoqXMbWL+uOjU3JW0tnKP/XTwXRft8+dd2+t8/IiDt6zO6OHIxAck0+HPVa6pPtZ9DpQ5BLXmv2xoTRhKKPHhWkE/4yoId8dI412pchuo263pXqeNU5i/0rijqXg97vSGyNu/P9dI29+/UL1qUPvOES9QRFbU6LofMwHRjdYRbjx22OjuIizkRF3jamjONMl1teEU/dDBw55nYGdScc8u1PPQ6pfTqdOseTdJrsPSt7z+jRZuI6kjoPM6mR+h7zH4wezGNreaks17/2DKUIFDzCufV02HpH2p0Qa1Y59PTv3dKux4i2Ypi37I5Tj0+tO4O628UmHW90mGwnCZqWujlodurak+33Uo4C83xcP/8+/d9N77NX9jljdptVszQw0qH2M6jOmVmhmeuma9BPx3znHHh4XT4Kp0/EqWYm1ceq+zEcV9vHBCd1jpx6dd3hOf5amN8RvU1U9P0fZjDk46VuHUjd5ei447ZQQfutDtnrhGazyqGn0//Yaf1Nerw6LB+7JWP+bZyOcG4nuIRhGw09c6buDOruL/Y9ehr+HhVsU009P3zqpFOXrmfddMpxPOpz+s6oY33r7Lyf22FdQ09rec5k+28n39tpw2MPzBIwe8wQCqBAmJlFJd2sruWyrWaXU5ee2UyxwEJhZmaVVDO3zoz+q4Suq0dm3BlCxZpZarl+hY2WcwCFwUwmlL7z7N05mqAJKBDL6qXV338Ac29FtbSm6msBZIFwDqCgOLPJlpUnjPKjOxC/XhOSzkrdC3WeO0kDeTchn/a7pUIx/Qey7Ch7/UZM8RDiNO3xzq96RPpL3JJPLWg117h+hY1wDqAw+Ea/0Z1r42f71B2IdwRUMNc17xZ0kgbyTdfl7z0T1xcgS3fG7ssLm75rniE93UejXzqO2jFs5p9tXisjd/gLYiGj5hxAQakt2ySvVdbIiqJAzJjZuiPvL0cvOWOuz0kHYuAxUrKkWPaEXpBPP7sp535xzayF7XQw3/C9VfKjH5+TL798ZNai0BDOAQBAgiXfXCwv/bBBKpcHZE2NM1csLKZLWXSL+U9P9xHMCxzhHAAAALAENecAAACAJQo6nNNqDgAAgIWElnMAAADAEoRzAAAAwBKEcwAAAMAShHMAAADAEoRzAAAAwBIFPc651rQnJKH15omeQnf8gXQfPSuXbptVAAAAQIFYYC3nJVKxbKWEDmyRJrMGAAAAKBQF33IeY0W1bH91szQvm5Se/SflJK3nAAAAKCALq+X89pB82j9pngAAAACFZcF1CB0ee2CWAAAAgMKy4MJ5sGKJWQIAAAAKywIdSvGBfEG9OQAAAArMAg3nAAAAQOFZoOF8pYTe3SBNK8xTAAAAoAAsrKEUHaXStOd5aVlfIhVmzdiZLnnj1IR5BgAAANhpwZa1eMEcAAAAKBQLr+W8cYt07lopMn5LOo7+Wi7dpsUcAAAAhWGBDqU4KT1HzxLMAQAAUFAYShEAAACwxAIN50tkOSO1AAAAoMAs2A6hAAAAQKFZcOF8eOyBWQIAAAAKywLtEAoAAAAUnoUVzldUS+vWEvMEAAAAKCwFP855056QhNabJ57xftn71mUZNk8BAACAQrDAylomZexKv3QcJZgDAACg8Cy8GUIBAACAAsVQigAAAIAlCOcAAACAJQjnAAAAgCUI5wAAAIAlCOcAAACAJQjnAAAAgCUI5wAAAIAlCOcAAACAJQjnAAAAgCUI5wAAAIAlCOcAAACAJQjnAAAAgCUI5wAAAIAlCOcAAACAJQjnAAAAgCUI5wAAAIAlCOcAAACAJQjnAAAAgCW+1nkiJO+3lpqnAAAAAOYLLecAAACAJRY9va7uK7MMAAAAYB7Rcg4AAABYgnAOAAAAWIJwDgAAAFiCcA4AAABYgnAOAAAAWIJwDgAAAFiCcA4AAABYgnAOAAAAWIJwDgAAAFiCcA4AAABYgnAOAAAAWIJwDgAAAFiCcA4AAABYgnAOAAAAWIJwDgAAAFiCcA4AAABYgnAOAAAAWIJwDgAAAFiCcA4AAABYgnAOAAAAWIJwDgAAAFiCcA4AAABYgnAOAAAAWIJwDgAAAFiCcA4AAABYgnAOAAAAWIJwDgAAAFiCcA4AAABYgnAOAAAAWIJwDgAAAFiCcA4AAABYQeT/A6DEAGCH51dGAAAAAElFTkSuQmCC;" vertex="1" parent="1">
          <mxGeometry x="390" y="50" width="743" height="759" as="geometry" />
        </mxCell>
      </root>
    </mxGraphModel>
  </diagram>
</mxfile>
